<mxfile type="device" compressed="false">
    <diagram id="Network Topology" name="Network Topology">
      <mxGraphModel dx="1360" dy="864" grid="1" gridSize="10" guides="1" tooltips="1" connect="1" arrows="1" fold="1" page="1" pageScale="1" pageWidth="827" pageHeight="1169" math="0" shadow="1">
        <root>
          <mxCell id="0" />   
          <mxCell id="1" parent="0" />
        <object id="srl-1" label="srl-1">
      <mxCell style="shape=image;imageAlign=center;imageVerticalAlign=middle;labelPosition=left;align=right;verticalLabelPosition=top;spacingLeft=0;verticalAlign=bottom;spacingTop=0;spacing=0;image=data:image/png,iVBORw0KGgoAAAANSUhEUgAAAFgAAABYCAYAAABxlTA0AAAAAXNSR0IArs4c6QAAAARnQU1BAACxjwv8YQUAAAAJcEhZcwAAFxEAABcRAcom8z8AAAikSURBVHhe7ZwJbBRVGMe3pUBrASkUlVMpV6EUQSlCCqhEjbYiIQEUETFyVEAr3hDwquCFVE2EYoTWCBTk8KgmiBfGqDEoRbkE5JByWW9UtJTC5/d/MwPD8na7OzOvu4vvS35pd3bezPS337735r039flSskijiKZZf2nBKtGCFaMFK0YLVowWrBgtWDFasGK0YMVowYrRghUTlYIbX8IX1lv+XqwRVYKb9SFfYiYlpPYlX1IP+T6xRtQIhlxfF2rf4wbasHE7jc57lF+nyfeVgYyPS+cyncWHJI4n26+uiQrBpty0jFzavfcAIU6cOEE33jY1NMnnXkoJLfrSkFH308hx0ykzeyT5knvK961rIi7YytxuOSz3oJBrxQlm+JiHapfcqCc1aXcFVR2tFuUK5y7hMh3l+9Y1ERV8WuaeLtcKSB5Rm2QW3Ljt5VT582+izKw5xbx/J/m+dU3EBFtyOXP3VBwSYhBHzSw8Wm38tCKoZC3YjwDVwosvv04LFr0tft+6fQ/d9eBs8TsCdXLA6kILtgG5cWa1UHFK7qLlq1lKGyoqXiVe7913iHz1utJtEx8TrxGoLqQNnxZsg7tQPfuNoH0HK4UMxOIV75GvQQZLuYhKSt8V2yr2/0gNL8jmbe1ofP5Msc2K2yc/Tr6G3U8dUwu2kdCVcoffLUQgFiNzIfeci1lKOhUveUdsh+DElv2N7hZnrF3yHPQSErrxxZt3e1qwDVH/duL+6gx6lbPVl8RiIdesl88Q3KiXIdLXge6Z/jy9ULRUVB3o+548phYsoSHfbTXgrznGHSAX2wIJxnuQjP2R7Xa5QAuW0BT4DegEEyzK8P7+ZYAWHCK1CQ6EFhwiWrBiIi0YjafV4Mred4IWbMLnzhkxhdp1v150JT2T/L8XzI1mHN/8jJ1cIMpu2rqTUtsMNLLZC8laMAvmu8LSVe+LsojyjdupuVeSdRXBNO5F8Uk9xC27FetZsshkt9WFFsxAIBo3vomxSy7fZEp2k8lasEkzBrftfLfon8muqgvHgnGyZL4gliImGj3h/JPDlW4Ez5hZxMdK9Tt2qFzItKEX5y+j48ePi+OJ6qKtQ8mOBfMnnX3tOCopfYezrswTFrLcHbsqxB/lRvD6b7fR3KKl4sMKm5I36CUuO2/hSvrn3ypxPAQavgsuGmRUJbJrCIRjwb6ONPn+Z8zTex8/saxwBDdhwX/+fcQsrSY+W7eREs7pceZgUzAcC45Pp+FjptL+A5Ui27xkHx/zy683GQPu3MJLz2+H90luPZDLbKadu/fR9/wtcAyX37FzL33DDVx19TFTLdERzubcYfkUl5QJafLrkOFYMPcf66VeRkmt+otM85IkRsiVnTcI9VL7ivURWBnkCC5bD3UsN5AYe64+Zgg+8k8VDcrN4+0dpOcNimPB4NzexldYBRgnlp0zGE24DMo5AWXF7MmFNOm+p4VYBORemTPemVzgSvDZBOpVXxrlP/ScqZZEIzcod4JzuUCJ4EAD49EKrpUl2uUa1YJLucBzwWgAMOPrPx0UrWAsIjGTpj8xz1RrNGhX5nggF3gqWGRCGk3i7hsWkPgSuUuDuk22b7RgCn7ltbeEXKNaMBs03N3JyoSDZ4JNuWPueFRcKGLB4jKKwyQl3pOViRaQBPytw6LBwSPv9SZzLTwRbModnfewqdaIcXcWGNVFOP3GSIBMbcKNHG6Fcb1eVmuuBZtyb817xNRqRMhre6MJFd80V4ItubZqARGTclXhWLAkc7H0dOjN9/H2tkanvZEb+GZDdt5giJsU2bE8wGl2OxJsyrU3aFVV1TQ2f6aYfsHIlluSMQYrO3cA4rgebcRlZMfyAtxKO5IctmA+CaZX8qbMMtUagYGRXXv2U+VPv4phQ7fgQRgxHhFKJnOGQe6Wbbulx/KCy9F1QyMoO38wwhbMNw+JKb1py/Y9plo1gQ8KAz+hCkaW/XH4L7O09zH4JnTfusjPHwxHVQRncOsOV9Fmzhgr0EF/oaiUZheWUCH/LJzngMJXafN3u8TxMGwZrmBkGgID7oW4Dtk5HNIla5izZ/ccCUY/MT6dWrYfRJtMIZhewSyAaOAEnZiOYdKC5hW7nzKaNaeEj9Xc79guQUPnpH/sSDAwJWMaxZKMWFH2EdfRmcanHe4FeTTpiYwLe9JTFY4FA0syZ7K9ulhZ9rEx8h+uZC1YgpDcVZrJDTDdE8qUj4UWHAB7dbHtlOQlK9dQXH3bsxS1oQUHwZSMhg9T7zU1x+n6YfnGg9my/WVowbUAydwZb99ziFgzIRZy6DrYQ8EAQtG41c8ITy7QghWjBStGC1ZMqIIxxW7vmYQi2L9MXRFTglGn4zWWmWJC1RIWTDDKYGwahNOj8YqYEoyV6Cxq+Zsf0LSCubx/B3N1UQDBkNsgg5LP60erP/yCRk14mLeH2bNxS8wIxjh0w+60jOVacecDz3KZNLGk9EzBLBJyWebaz9aL7Yhrhk42HiT3P7cqYkkw1i9MvOcp8b4VhuR2lNx6wEnBz+OBcV9rSm7ehz75vFxsQ2CNb1rX68Jf4+uGmKoiMP3vNw+ImDBllni4/FDlL+J1wewFFJ/YidZ+fipz123YSs1a8fGQvbqKCCAYoGFjybdwfWqPaQUv0e4fjH8JNr9kFa0oWyt+R6wr30opLbPrXi6IOcHAlDzaT3JNTY34if/vY8VXG76LnFwQrYKxyj2gYBBAsj2MzI1AtWAnugR3ptJVa4ScX38/HFwwsKqL8WdKRp0b0cy1iCrBLDOj3410NXelBuSMp/jmlxkSZftamJLtDd+68i2UEokGTUZUCYYM3G3FpxtyQl00aEqeMOVJ+vSLDZSCRSvRIBdElWA3QDKGSTHm4GTCVRVnjWAAyViGKnsvUpxVgqMRLVgxWrBitGDFaMGK0YIVowUrRgtWjBasGC1YMU2zjviEZY0isn78D43o8OjRWGtOAAAAAElFTkSuQmCC;" vertex="1" parent="1">
          <mxGeometry x="900" y="100.0" width="75" height="75" as="geometry" />
      </mxCell>
    </object><object id="srl-2" label="srl-2">
      <mxCell style="shape=image;imageAlign=center;imageVerticalAlign=middle;labelPosition=left;align=right;verticalLabelPosition=top;spacingLeft=0;verticalAlign=bottom;spacingTop=0;spacing=0;image=data:image/png,iVBORw0KGgoAAAANSUhEUgAAAFgAAABYCAYAAABxlTA0AAAAAXNSR0IArs4c6QAAAARnQU1BAACxjwv8YQUAAAAJcEhZcwAAFxEAABcRAcom8z8AAAikSURBVHhe7ZwJbBRVGMe3pUBrASkUlVMpV6EUQSlCCqhEjbYiIQEUETFyVEAr3hDwquCFVE2EYoTWCBTk8KgmiBfGqDEoRbkE5JByWW9UtJTC5/d/MwPD8na7OzOvu4vvS35pd3bezPS337735r039flSskijiKZZf2nBKtGCFaMFK0YLVowWrBgtWDFasGK0YMVowYrRghUTlYIbX8IX1lv+XqwRVYKb9SFfYiYlpPYlX1IP+T6xRtQIhlxfF2rf4wbasHE7jc57lF+nyfeVgYyPS+cyncWHJI4n26+uiQrBpty0jFzavfcAIU6cOEE33jY1NMnnXkoJLfrSkFH308hx0ykzeyT5knvK961rIi7YytxuOSz3oJBrxQlm+JiHapfcqCc1aXcFVR2tFuUK5y7hMh3l+9Y1ERV8WuaeLtcKSB5Rm2QW3Ljt5VT582+izKw5xbx/J/m+dU3EBFtyOXP3VBwSYhBHzSw8Wm38tCKoZC3YjwDVwosvv04LFr0tft+6fQ/d9eBs8TsCdXLA6kILtgG5cWa1UHFK7qLlq1lKGyoqXiVe7913iHz1utJtEx8TrxGoLqQNnxZsg7tQPfuNoH0HK4UMxOIV75GvQQZLuYhKSt8V2yr2/0gNL8jmbe1ofP5Msc2K2yc/Tr6G3U8dUwu2kdCVcoffLUQgFiNzIfeci1lKOhUveUdsh+DElv2N7hZnrF3yHPQSErrxxZt3e1qwDVH/duL+6gx6lbPVl8RiIdesl88Q3KiXIdLXge6Z/jy9ULRUVB3o+548phYsoSHfbTXgrznGHSAX2wIJxnuQjP2R7Xa5QAuW0BT4DegEEyzK8P7+ZYAWHCK1CQ6EFhwiWrBiIi0YjafV4Mred4IWbMLnzhkxhdp1v150JT2T/L8XzI1mHN/8jJ1cIMpu2rqTUtsMNLLZC8laMAvmu8LSVe+LsojyjdupuVeSdRXBNO5F8Uk9xC27FetZsshkt9WFFsxAIBo3vomxSy7fZEp2k8lasEkzBrftfLfon8muqgvHgnGyZL4gliImGj3h/JPDlW4Ez5hZxMdK9Tt2qFzItKEX5y+j48ePi+OJ6qKtQ8mOBfMnnX3tOCopfYezrswTFrLcHbsqxB/lRvD6b7fR3KKl4sMKm5I36CUuO2/hSvrn3ypxPAQavgsuGmRUJbJrCIRjwb6ONPn+Z8zTex8/saxwBDdhwX/+fcQsrSY+W7eREs7pceZgUzAcC45Pp+FjptL+A5Ui27xkHx/zy683GQPu3MJLz2+H90luPZDLbKadu/fR9/wtcAyX37FzL33DDVx19TFTLdERzubcYfkUl5QJafLrkOFYMPcf66VeRkmt+otM85IkRsiVnTcI9VL7ivURWBnkCC5bD3UsN5AYe64+Zgg+8k8VDcrN4+0dpOcNimPB4NzexldYBRgnlp0zGE24DMo5AWXF7MmFNOm+p4VYBORemTPemVzgSvDZBOpVXxrlP/ScqZZEIzcod4JzuUCJ4EAD49EKrpUl2uUa1YJLucBzwWgAMOPrPx0UrWAsIjGTpj8xz1RrNGhX5nggF3gqWGRCGk3i7hsWkPgSuUuDuk22b7RgCn7ltbeEXKNaMBs03N3JyoSDZ4JNuWPueFRcKGLB4jKKwyQl3pOViRaQBPytw6LBwSPv9SZzLTwRbModnfewqdaIcXcWGNVFOP3GSIBMbcKNHG6Fcb1eVmuuBZtyb817xNRqRMhre6MJFd80V4ItubZqARGTclXhWLAkc7H0dOjN9/H2tkanvZEb+GZDdt5giJsU2bE8wGl2OxJsyrU3aFVV1TQ2f6aYfsHIlluSMQYrO3cA4rgebcRlZMfyAtxKO5IctmA+CaZX8qbMMtUagYGRXXv2U+VPv4phQ7fgQRgxHhFKJnOGQe6Wbbulx/KCy9F1QyMoO38wwhbMNw+JKb1py/Y9plo1gQ8KAz+hCkaW/XH4L7O09zH4JnTfusjPHwxHVQRncOsOV9Fmzhgr0EF/oaiUZheWUCH/LJzngMJXafN3u8TxMGwZrmBkGgID7oW4Dtk5HNIla5izZ/ccCUY/MT6dWrYfRJtMIZhewSyAaOAEnZiOYdKC5hW7nzKaNaeEj9Xc79guQUPnpH/sSDAwJWMaxZKMWFH2EdfRmcanHe4FeTTpiYwLe9JTFY4FA0syZ7K9ulhZ9rEx8h+uZC1YgpDcVZrJDTDdE8qUj4UWHAB7dbHtlOQlK9dQXH3bsxS1oQUHwZSMhg9T7zU1x+n6YfnGg9my/WVowbUAydwZb99ziFgzIRZy6DrYQ8EAQtG41c8ITy7QghWjBStGC1ZMqIIxxW7vmYQi2L9MXRFTglGn4zWWmWJC1RIWTDDKYGwahNOj8YqYEoyV6Cxq+Zsf0LSCubx/B3N1UQDBkNsgg5LP60erP/yCRk14mLeH2bNxS8wIxjh0w+60jOVacecDz3KZNLGk9EzBLBJyWebaz9aL7Yhrhk42HiT3P7cqYkkw1i9MvOcp8b4VhuR2lNx6wEnBz+OBcV9rSm7ehz75vFxsQ2CNb1rX68Jf4+uGmKoiMP3vNw+ImDBllni4/FDlL+J1wewFFJ/YidZ+fipz123YSs1a8fGQvbqKCCAYoGFjybdwfWqPaQUv0e4fjH8JNr9kFa0oWyt+R6wr30opLbPrXi6IOcHAlDzaT3JNTY34if/vY8VXG76LnFwQrYKxyj2gYBBAsj2MzI1AtWAnugR3ptJVa4ScX38/HFwwsKqL8WdKRp0b0cy1iCrBLDOj3410NXelBuSMp/jmlxkSZftamJLtDd+68i2UEokGTUZUCYYM3G3FpxtyQl00aEqeMOVJ+vSLDZSCRSvRIBdElWA3QDKGSTHm4GTCVRVnjWAAyViGKnsvUpxVgqMRLVgxWrBitGDFaMGK0YIVowUrRgtWjBasGC1YMU2zjviEZY0isn78D43o8OjRWGtOAAAAAElFTkSuQmCC;" vertex="1" parent="1">
          <mxGeometry x="900" y="300.0" width="75" height="75" as="geometry" />
      </mxCell>
    </object><object id="srl-3" label="srl-3">
      <mxCell style="shape=image;imageAlign=center;imageVerticalAlign=middle;labelPosition=left;align=right;verticalLabelPosition=top;spacingLeft=0;verticalAlign=bottom;spacingTop=0;spacing=0;image=data:image/png,iVBORw0KGgoAAAANSUhEUgAAAFgAAABYCAYAAABxlTA0AAAAAXNSR0IArs4c6QAAAARnQU1BAACxjwv8YQUAAAAJcEhZcwAAFxEAABcRAcom8z8AAAikSURBVHhe7ZwJbBRVGMe3pUBrASkUlVMpV6EUQSlCCqhEjbYiIQEUETFyVEAr3hDwquCFVE2EYoTWCBTk8KgmiBfGqDEoRbkE5JByWW9UtJTC5/d/MwPD8na7OzOvu4vvS35pd3bezPS337735r039flSskijiKZZf2nBKtGCFaMFK0YLVowWrBgtWDFasGK0YMVowYrRghUTlYIbX8IX1lv+XqwRVYKb9SFfYiYlpPYlX1IP+T6xRtQIhlxfF2rf4wbasHE7jc57lF+nyfeVgYyPS+cyncWHJI4n26+uiQrBpty0jFzavfcAIU6cOEE33jY1NMnnXkoJLfrSkFH308hx0ykzeyT5knvK961rIi7YytxuOSz3oJBrxQlm+JiHapfcqCc1aXcFVR2tFuUK5y7hMh3l+9Y1ERV8WuaeLtcKSB5Rm2QW3Ljt5VT582+izKw5xbx/J/m+dU3EBFtyOXP3VBwSYhBHzSw8Wm38tCKoZC3YjwDVwosvv04LFr0tft+6fQ/d9eBs8TsCdXLA6kILtgG5cWa1UHFK7qLlq1lKGyoqXiVe7913iHz1utJtEx8TrxGoLqQNnxZsg7tQPfuNoH0HK4UMxOIV75GvQQZLuYhKSt8V2yr2/0gNL8jmbe1ofP5Msc2K2yc/Tr6G3U8dUwu2kdCVcoffLUQgFiNzIfeci1lKOhUveUdsh+DElv2N7hZnrF3yHPQSErrxxZt3e1qwDVH/duL+6gx6lbPVl8RiIdesl88Q3KiXIdLXge6Z/jy9ULRUVB3o+548phYsoSHfbTXgrznGHSAX2wIJxnuQjP2R7Xa5QAuW0BT4DegEEyzK8P7+ZYAWHCK1CQ6EFhwiWrBiIi0YjafV4Mred4IWbMLnzhkxhdp1v150JT2T/L8XzI1mHN/8jJ1cIMpu2rqTUtsMNLLZC8laMAvmu8LSVe+LsojyjdupuVeSdRXBNO5F8Uk9xC27FetZsshkt9WFFsxAIBo3vomxSy7fZEp2k8lasEkzBrftfLfon8muqgvHgnGyZL4gliImGj3h/JPDlW4Ez5hZxMdK9Tt2qFzItKEX5y+j48ePi+OJ6qKtQ8mOBfMnnX3tOCopfYezrswTFrLcHbsqxB/lRvD6b7fR3KKl4sMKm5I36CUuO2/hSvrn3ypxPAQavgsuGmRUJbJrCIRjwb6ONPn+Z8zTex8/saxwBDdhwX/+fcQsrSY+W7eREs7pceZgUzAcC45Pp+FjptL+A5Ui27xkHx/zy683GQPu3MJLz2+H90luPZDLbKadu/fR9/wtcAyX37FzL33DDVx19TFTLdERzubcYfkUl5QJafLrkOFYMPcf66VeRkmt+otM85IkRsiVnTcI9VL7ivURWBnkCC5bD3UsN5AYe64+Zgg+8k8VDcrN4+0dpOcNimPB4NzexldYBRgnlp0zGE24DMo5AWXF7MmFNOm+p4VYBORemTPemVzgSvDZBOpVXxrlP/ScqZZEIzcod4JzuUCJ4EAD49EKrpUl2uUa1YJLucBzwWgAMOPrPx0UrWAsIjGTpj8xz1RrNGhX5nggF3gqWGRCGk3i7hsWkPgSuUuDuk22b7RgCn7ltbeEXKNaMBs03N3JyoSDZ4JNuWPueFRcKGLB4jKKwyQl3pOViRaQBPytw6LBwSPv9SZzLTwRbModnfewqdaIcXcWGNVFOP3GSIBMbcKNHG6Fcb1eVmuuBZtyb817xNRqRMhre6MJFd80V4ItubZqARGTclXhWLAkc7H0dOjN9/H2tkanvZEb+GZDdt5giJsU2bE8wGl2OxJsyrU3aFVV1TQ2f6aYfsHIlluSMQYrO3cA4rgebcRlZMfyAtxKO5IctmA+CaZX8qbMMtUagYGRXXv2U+VPv4phQ7fgQRgxHhFKJnOGQe6Wbbulx/KCy9F1QyMoO38wwhbMNw+JKb1py/Y9plo1gQ8KAz+hCkaW/XH4L7O09zH4JnTfusjPHwxHVQRncOsOV9Fmzhgr0EF/oaiUZheWUCH/LJzngMJXafN3u8TxMGwZrmBkGgID7oW4Dtk5HNIla5izZ/ccCUY/MT6dWrYfRJtMIZhewSyAaOAEnZiOYdKC5hW7nzKaNaeEj9Xc79guQUPnpH/sSDAwJWMaxZKMWFH2EdfRmcanHe4FeTTpiYwLe9JTFY4FA0syZ7K9ulhZ9rEx8h+uZC1YgpDcVZrJDTDdE8qUj4UWHAB7dbHtlOQlK9dQXH3bsxS1oQUHwZSMhg9T7zU1x+n6YfnGg9my/WVowbUAydwZb99ziFgzIRZy6DrYQ8EAQtG41c8ITy7QghWjBStGC1ZMqIIxxW7vmYQi2L9MXRFTglGn4zWWmWJC1RIWTDDKYGwahNOj8YqYEoyV6Cxq+Zsf0LSCubx/B3N1UQDBkNsgg5LP60erP/yCRk14mLeH2bNxS8wIxjh0w+60jOVacecDz3KZNLGk9EzBLBJyWebaz9aL7Yhrhk42HiT3P7cqYkkw1i9MvOcp8b4VhuR2lNx6wEnBz+OBcV9rSm7ehz75vFxsQ2CNb1rX68Jf4+uGmKoiMP3vNw+ImDBllni4/FDlL+J1wewFFJ/YidZ+fipz123YSs1a8fGQvbqKCCAYoGFjybdwfWqPaQUv0e4fjH8JNr9kFa0oWyt+R6wr30opLbPrXi6IOcHAlDzaT3JNTY34if/vY8VXG76LnFwQrYKxyj2gYBBAsj2MzI1AtWAnugR3ptJVa4ScX38/HFwwsKqL8WdKRp0b0cy1iCrBLDOj3410NXelBuSMp/jmlxkSZftamJLtDd+68i2UEokGTUZUCYYM3G3FpxtyQl00aEqeMOVJ+vSLDZSCRSvRIBdElWA3QDKGSTHm4GTCVRVnjWAAyViGKnsvUpxVgqMRLVgxWrBitGDFaMGK0YIVowUrRgtWjBasGC1YMU2zjviEZY0isn78D43o8OjRWGtOAAAAAElFTkSuQmCC;" vertex="1" parent="1">
          <mxGeometry x="700" y="0.0" width="75" height="75" as="geometry" />
      </mxCell>
    </object><object id="vswitch-1" label="vswitch-1">
      <mxCell style="shape=image;imageAlign=center;imageVerticalAlign=middle;labelPosition=left;align=right;verticalLabelPosition=top;spacingLeft=0;verticalAlign=bottom;spacingTop=0;spacing=0;image=data:image/png,iVBORw0KGgoAAAANSUhEUgAAAFgAAABYCAYAAABxlTA0AAAAAXNSR0IArs4c6QAAAARnQU1BAACxjwv8YQUAAAAJcEhZcwAAFxEAABcRAcom8z8AAAikSURBVHhe7ZwJbBRVGMe3pUBrASkUlVMpV6EUQSlCCqhEjbYiIQEUETFyVEAr3hDwquCFVE2EYoTWCBTk8KgmiBfGqDEoRbkE5JByWW9UtJTC5/d/MwPD8na7OzOvu4vvS35pd3bezPS337735r039flSskijiKZZf2nBKtGCFaMFK0YLVowWrBgtWDFasGK0YMVowYrRghUTlYIbX8IX1lv+XqwRVYKb9SFfYiYlpPYlX1IP+T6xRtQIhlxfF2rf4wbasHE7jc57lF+nyfeVgYyPS+cyncWHJI4n26+uiQrBpty0jFzavfcAIU6cOEE33jY1NMnnXkoJLfrSkFH308hx0ykzeyT5knvK961rIi7YytxuOSz3oJBrxQlm+JiHapfcqCc1aXcFVR2tFuUK5y7hMh3l+9Y1ERV8WuaeLtcKSB5Rm2QW3Ljt5VT582+izKw5xbx/J/m+dU3EBFtyOXP3VBwSYhBHzSw8Wm38tCKoZC3YjwDVwosvv04LFr0tft+6fQ/d9eBs8TsCdXLA6kILtgG5cWa1UHFK7qLlq1lKGyoqXiVe7913iHz1utJtEx8TrxGoLqQNnxZsg7tQPfuNoH0HK4UMxOIV75GvQQZLuYhKSt8V2yr2/0gNL8jmbe1ofP5Msc2K2yc/Tr6G3U8dUwu2kdCVcoffLUQgFiNzIfeci1lKOhUveUdsh+DElv2N7hZnrF3yHPQSErrxxZt3e1qwDVH/duL+6gx6lbPVl8RiIdesl88Q3KiXIdLXge6Z/jy9ULRUVB3o+548phYsoSHfbTXgrznGHSAX2wIJxnuQjP2R7Xa5QAuW0BT4DegEEyzK8P7+ZYAWHCK1CQ6EFhwiWrBiIi0YjafV4Mred4IWbMLnzhkxhdp1v150JT2T/L8XzI1mHN/8jJ1cIMpu2rqTUtsMNLLZC8laMAvmu8LSVe+LsojyjdupuVeSdRXBNO5F8Uk9xC27FetZsshkt9WFFsxAIBo3vomxSy7fZEp2k8lasEkzBrftfLfon8muqgvHgnGyZL4gliImGj3h/JPDlW4Ez5hZxMdK9Tt2qFzItKEX5y+j48ePi+OJ6qKtQ8mOBfMnnX3tOCopfYezrswTFrLcHbsqxB/lRvD6b7fR3KKl4sMKm5I36CUuO2/hSvrn3ypxPAQavgsuGmRUJbJrCIRjwb6ONPn+Z8zTex8/saxwBDdhwX/+fcQsrSY+W7eREs7pceZgUzAcC45Pp+FjptL+A5Ui27xkHx/zy683GQPu3MJLz2+H90luPZDLbKadu/fR9/wtcAyX37FzL33DDVx19TFTLdERzubcYfkUl5QJafLrkOFYMPcf66VeRkmt+otM85IkRsiVnTcI9VL7ivURWBnkCC5bD3UsN5AYe64+Zgg+8k8VDcrN4+0dpOcNimPB4NzexldYBRgnlp0zGE24DMo5AWXF7MmFNOm+p4VYBORemTPemVzgSvDZBOpVXxrlP/ScqZZEIzcod4JzuUCJ4EAD49EKrpUl2uUa1YJLucBzwWgAMOPrPx0UrWAsIjGTpj8xz1RrNGhX5nggF3gqWGRCGk3i7hsWkPgSuUuDuk22b7RgCn7ltbeEXKNaMBs03N3JyoSDZ4JNuWPueFRcKGLB4jKKwyQl3pOViRaQBPytw6LBwSPv9SZzLTwRbModnfewqdaIcXcWGNVFOP3GSIBMbcKNHG6Fcb1eVmuuBZtyb817xNRqRMhre6MJFd80V4ItubZqARGTclXhWLAkc7H0dOjN9/H2tkanvZEb+GZDdt5giJsU2bE8wGl2OxJsyrU3aFVV1TQ2f6aYfsHIlluSMQYrO3cA4rgebcRlZMfyAtxKO5IctmA+CaZX8qbMMtUagYGRXXv2U+VPv4phQ7fgQRgxHhFKJnOGQe6Wbbulx/KCy9F1QyMoO38wwhbMNw+JKb1py/Y9plo1gQ8KAz+hCkaW/XH4L7O09zH4JnTfusjPHwxHVQRncOsOV9Fmzhgr0EF/oaiUZheWUCH/LJzngMJXafN3u8TxMGwZrmBkGgID7oW4Dtk5HNIla5izZ/ccCUY/MT6dWrYfRJtMIZhewSyAaOAEnZiOYdKC5hW7nzKaNaeEj9Xc79guQUPnpH/sSDAwJWMaxZKMWFH2EdfRmcanHe4FeTTpiYwLe9JTFY4FA0syZ7K9ulhZ9rEx8h+uZC1YgpDcVZrJDTDdE8qUj4UWHAB7dbHtlOQlK9dQXH3bsxS1oQUHwZSMhg9T7zU1x+n6YfnGg9my/WVowbUAydwZb99ziFgzIRZy6DrYQ8EAQtG41c8ITy7QghWjBStGC1ZMqIIxxW7vmYQi2L9MXRFTglGn4zWWmWJC1RIWTDDKYGwahNOj8YqYEoyV6Cxq+Zsf0LSCubx/B3N1UQDBkNsgg5LP60erP/yCRk14mLeH2bNxS8wIxjh0w+60jOVacecDz3KZNLGk9EzBLBJyWebaz9aL7Yhrhk42HiT3P7cqYkkw1i9MvOcp8b4VhuR2lNx6wEnBz+OBcV9rSm7ehz75vFxsQ2CNb1rX68Jf4+uGmKoiMP3vNw+ImDBllni4/FDlL+J1wewFFJ/YidZ+fipz123YSs1a8fGQvbqKCCAYoGFjybdwfWqPaQUv0e4fjH8JNr9kFa0oWyt+R6wr30opLbPrXi6IOcHAlDzaT3JNTY34if/vY8VXG76LnFwQrYKxyj2gYBBAsj2MzI1AtWAnugR3ptJVa4ScX38/HFwwsKqL8WdKRp0b0cy1iCrBLDOj3410NXelBuSMp/jmlxkSZftamJLtDd+68i2UEokGTUZUCYYM3G3FpxtyQl00aEqeMOVJ+vSLDZSCRSvRIBdElWA3QDKGSTHm4GTCVRVnjWAAyViGKnsvUpxVgqMRLVgxWrBitGDFaMGK0YIVowUrRgtWjBasGC1YMU2zjviEZY0isn78D43o8OjRWGtOAAAAAElFTkSuQmCC;" vertex="1" parent="1">
          <mxGeometry x="700" y="400.0" width="75" height="75" as="geometry" />
      </mxCell>
    </object><object id="7750-CORE-1" label="7750-CORE-1">
      <mxCell style="shape=image;imageAlign=center;imageVerticalAlign=middle;labelPosition=left;align=right;verticalLabelPosition=top;spacingLeft=0;verticalAlign=bottom;spacingTop=0;spacing=0;image=data:image/png,iVBORw0KGgoAAAANSUhEUgAAAFgAAABYCAYAAABxlTA0AAAAAXNSR0IArs4c6QAAAARnQU1BAACxjwv8YQUAAAAJcEhZcwAAFxEAABcRAcom8z8AAAikSURBVHhe7ZwJbBRVGMe3pUBrASkUlVMpV6EUQSlCCqhEjbYiIQEUETFyVEAr3hDwquCFVE2EYoTWCBTk8KgmiBfGqDEoRbkE5JByWW9UtJTC5/d/MwPD8na7OzOvu4vvS35pd3bezPS337735r039flSskijiKZZf2nBKtGCFaMFK0YLVowWrBgtWDFasGK0YMVowYrRghUTlYIbX8IX1lv+XqwRVYKb9SFfYiYlpPYlX1IP+T6xRtQIhlxfF2rf4wbasHE7jc57lF+nyfeVgYyPS+cyncWHJI4n26+uiQrBpty0jFzavfcAIU6cOEE33jY1NMnnXkoJLfrSkFH308hx0ykzeyT5knvK961rIi7YytxuOSz3oJBrxQlm+JiHapfcqCc1aXcFVR2tFuUK5y7hMh3l+9Y1ERV8WuaeLtcKSB5Rm2QW3Ljt5VT582+izKw5xbx/J/m+dU3EBFtyOXP3VBwSYhBHzSw8Wm38tCKoZC3YjwDVwosvv04LFr0tft+6fQ/d9eBs8TsCdXLA6kILtgG5cWa1UHFK7qLlq1lKGyoqXiVe7913iHz1utJtEx8TrxGoLqQNnxZsg7tQPfuNoH0HK4UMxOIV75GvQQZLuYhKSt8V2yr2/0gNL8jmbe1ofP5Msc2K2yc/Tr6G3U8dUwu2kdCVcoffLUQgFiNzIfeci1lKOhUveUdsh+DElv2N7hZnrF3yHPQSErrxxZt3e1qwDVH/duL+6gx6lbPVl8RiIdesl88Q3KiXIdLXge6Z/jy9ULRUVB3o+548phYsoSHfbTXgrznGHSAX2wIJxnuQjP2R7Xa5QAuW0BT4DegEEyzK8P7+ZYAWHCK1CQ6EFhwiWrBiIi0YjafV4Mred4IWbMLnzhkxhdp1v150JT2T/L8XzI1mHN/8jJ1cIMpu2rqTUtsMNLLZC8laMAvmu8LSVe+LsojyjdupuVeSdRXBNO5F8Uk9xC27FetZsshkt9WFFsxAIBo3vomxSy7fZEp2k8lasEkzBrftfLfon8muqgvHgnGyZL4gliImGj3h/JPDlW4Ez5hZxMdK9Tt2qFzItKEX5y+j48ePi+OJ6qKtQ8mOBfMnnX3tOCopfYezrswTFrLcHbsqxB/lRvD6b7fR3KKl4sMKm5I36CUuO2/hSvrn3ypxPAQavgsuGmRUJbJrCIRjwb6ONPn+Z8zTex8/saxwBDdhwX/+fcQsrSY+W7eREs7pceZgUzAcC45Pp+FjptL+A5Ui27xkHx/zy683GQPu3MJLz2+H90luPZDLbKadu/fR9/wtcAyX37FzL33DDVx19TFTLdERzubcYfkUl5QJafLrkOFYMPcf66VeRkmt+otM85IkRsiVnTcI9VL7ivURWBnkCC5bD3UsN5AYe64+Zgg+8k8VDcrN4+0dpOcNimPB4NzexldYBRgnlp0zGE24DMo5AWXF7MmFNOm+p4VYBORemTPemVzgSvDZBOpVXxrlP/ScqZZEIzcod4JzuUCJ4EAD49EKrpUl2uUa1YJLucBzwWgAMOPrPx0UrWAsIjGTpj8xz1RrNGhX5nggF3gqWGRCGk3i7hsWkPgSuUuDuk22b7RgCn7ltbeEXKNaMBs03N3JyoSDZ4JNuWPueFRcKGLB4jKKwyQl3pOViRaQBPytw6LBwSPv9SZzLTwRbModnfewqdaIcXcWGNVFOP3GSIBMbcKNHG6Fcb1eVmuuBZtyb817xNRqRMhre6MJFd80V4ItubZqARGTclXhWLAkc7H0dOjN9/H2tkanvZEb+GZDdt5giJsU2bE8wGl2OxJsyrU3aFVV1TQ2f6aYfsHIlluSMQYrO3cA4rgebcRlZMfyAtxKO5IctmA+CaZX8qbMMtUagYGRXXv2U+VPv4phQ7fgQRgxHhFKJnOGQe6Wbbulx/KCy9F1QyMoO38wwhbMNw+JKb1py/Y9plo1gQ8KAz+hCkaW/XH4L7O09zH4JnTfusjPHwxHVQRncOsOV9Fmzhgr0EF/oaiUZheWUCH/LJzngMJXafN3u8TxMGwZrmBkGgID7oW4Dtk5HNIla5izZ/ccCUY/MT6dWrYfRJtMIZhewSyAaOAEnZiOYdKC5hW7nzKaNaeEj9Xc79guQUPnpH/sSDAwJWMaxZKMWFH2EdfRmcanHe4FeTTpiYwLe9JTFY4FA0syZ7K9ulhZ9rEx8h+uZC1YgpDcVZrJDTDdE8qUj4UWHAB7dbHtlOQlK9dQXH3bsxS1oQUHwZSMhg9T7zU1x+n6YfnGg9my/WVowbUAydwZb99ziFgzIRZy6DrYQ8EAQtG41c8ITy7QghWjBStGC1ZMqIIxxW7vmYQi2L9MXRFTglGn4zWWmWJC1RIWTDDKYGwahNOj8YqYEoyV6Cxq+Zsf0LSCubx/B3N1UQDBkNsgg5LP60erP/yCRk14mLeH2bNxS8wIxjh0w+60jOVacecDz3KZNLGk9EzBLBJyWebaz9aL7Yhrhk42HiT3P7cqYkkw1i9MvOcp8b4VhuR2lNx6wEnBz+OBcV9rSm7ehz75vFxsQ2CNb1rX68Jf4+uGmKoiMP3vNw+ImDBllni4/FDlL+J1wewFFJ/YidZ+fipz123YSs1a8fGQvbqKCCAYoGFjybdwfWqPaQUv0e4fjH8JNr9kFa0oWyt+R6wr30opLbPrXi6IOcHAlDzaT3JNTY34if/vY8VXG76LnFwQrYKxyj2gYBBAsj2MzI1AtWAnugR3ptJVa4ScX38/HFwwsKqL8WdKRp0b0cy1iCrBLDOj3410NXelBuSMp/jmlxkSZftamJLtDd+68i2UEokGTUZUCYYM3G3FpxtyQl00aEqeMOVJ+vSLDZSCRSvRIBdElWA3QDKGSTHm4GTCVRVnjWAAyViGKnsvUpxVgqMRLVgxWrBitGDFaMGK0YIVowUrRgtWjBasGC1YMU2zjviEZY0isn78D43o8OjRWGtOAAAAAElFTkSuQmCC;" vertex="1" parent="1">
          <mxGeometry x="1100" y="100.0" width="75" height="75" as="geometry" />
      </mxCell>
    </object><object id="7750-CORE-2" label="7750-CORE-2">
      <mxCell style="shape=image;imageAlign=center;imageVerticalAlign=middle;labelPosition=left;align=right;verticalLabelPosition=top;spacingLeft=0;verticalAlign=bottom;spacingTop=0;spacing=0;image=data:image/png,iVBORw0KGgoAAAANSUhEUgAAAFgAAABYCAYAAABxlTA0AAAAAXNSR0IArs4c6QAAAARnQU1BAACxjwv8YQUAAAAJcEhZcwAAFxEAABcRAcom8z8AAAikSURBVHhe7ZwJbBRVGMe3pUBrASkUlVMpV6EUQSlCCqhEjbYiIQEUETFyVEAr3hDwquCFVE2EYoTWCBTk8KgmiBfGqDEoRbkE5JByWW9UtJTC5/d/MwPD8na7OzOvu4vvS35pd3bezPS337735r039flSskijiKZZf2nBKtGCFaMFK0YLVowWrBgtWDFasGK0YMVowYrRghUTlYIbX8IX1lv+XqwRVYKb9SFfYiYlpPYlX1IP+T6xRtQIhlxfF2rf4wbasHE7jc57lF+nyfeVgYyPS+cyncWHJI4n26+uiQrBpty0jFzavfcAIU6cOEE33jY1NMnnXkoJLfrSkFH308hx0ykzeyT5knvK961rIi7YytxuOSz3oJBrxQlm+JiHapfcqCc1aXcFVR2tFuUK5y7hMh3l+9Y1ERV8WuaeLtcKSB5Rm2QW3Ljt5VT582+izKw5xbx/J/m+dU3EBFtyOXP3VBwSYhBHzSw8Wm38tCKoZC3YjwDVwosvv04LFr0tft+6fQ/d9eBs8TsCdXLA6kILtgG5cWa1UHFK7qLlq1lKGyoqXiVe7913iHz1utJtEx8TrxGoLqQNnxZsg7tQPfuNoH0HK4UMxOIV75GvQQZLuYhKSt8V2yr2/0gNL8jmbe1ofP5Msc2K2yc/Tr6G3U8dUwu2kdCVcoffLUQgFiNzIfeci1lKOhUveUdsh+DElv2N7hZnrF3yHPQSErrxxZt3e1qwDVH/duL+6gx6lbPVl8RiIdesl88Q3KiXIdLXge6Z/jy9ULRUVB3o+548phYsoSHfbTXgrznGHSAX2wIJxnuQjP2R7Xa5QAuW0BT4DegEEyzK8P7+ZYAWHCK1CQ6EFhwiWrBiIi0YjafV4Mred4IWbMLnzhkxhdp1v150JT2T/L8XzI1mHN/8jJ1cIMpu2rqTUtsMNLLZC8laMAvmu8LSVe+LsojyjdupuVeSdRXBNO5F8Uk9xC27FetZsshkt9WFFsxAIBo3vomxSy7fZEp2k8lasEkzBrftfLfon8muqgvHgnGyZL4gliImGj3h/JPDlW4Ez5hZxMdK9Tt2qFzItKEX5y+j48ePi+OJ6qKtQ8mOBfMnnX3tOCopfYezrswTFrLcHbsqxB/lRvD6b7fR3KKl4sMKm5I36CUuO2/hSvrn3ypxPAQavgsuGmRUJbJrCIRjwb6ONPn+Z8zTex8/saxwBDdhwX/+fcQsrSY+W7eREs7pceZgUzAcC45Pp+FjptL+A5Ui27xkHx/zy683GQPu3MJLz2+H90luPZDLbKadu/fR9/wtcAyX37FzL33DDVx19TFTLdERzubcYfkUl5QJafLrkOFYMPcf66VeRkmt+otM85IkRsiVnTcI9VL7ivURWBnkCC5bD3UsN5AYe64+Zgg+8k8VDcrN4+0dpOcNimPB4NzexldYBRgnlp0zGE24DMo5AWXF7MmFNOm+p4VYBORemTPemVzgSvDZBOpVXxrlP/ScqZZEIzcod4JzuUCJ4EAD49EKrpUl2uUa1YJLucBzwWgAMOPrPx0UrWAsIjGTpj8xz1RrNGhX5nggF3gqWGRCGk3i7hsWkPgSuUuDuk22b7RgCn7ltbeEXKNaMBs03N3JyoSDZ4JNuWPueFRcKGLB4jKKwyQl3pOViRaQBPytw6LBwSPv9SZzLTwRbModnfewqdaIcXcWGNVFOP3GSIBMbcKNHG6Fcb1eVmuuBZtyb817xNRqRMhre6MJFd80V4ItubZqARGTclXhWLAkc7H0dOjN9/H2tkanvZEb+GZDdt5giJsU2bE8wGl2OxJsyrU3aFVV1TQ2f6aYfsHIlluSMQYrO3cA4rgebcRlZMfyAtxKO5IctmA+CaZX8qbMMtUagYGRXXv2U+VPv4phQ7fgQRgxHhFKJnOGQe6Wbbulx/KCy9F1QyMoO38wwhbMNw+JKb1py/Y9plo1gQ8KAz+hCkaW/XH4L7O09zH4JnTfusjPHwxHVQRncOsOV9Fmzhgr0EF/oaiUZheWUCH/LJzngMJXafN3u8TxMGwZrmBkGgID7oW4Dtk5HNIla5izZ/ccCUY/MT6dWrYfRJtMIZhewSyAaOAEnZiOYdKC5hW7nzKaNaeEj9Xc79guQUPnpH/sSDAwJWMaxZKMWFH2EdfRmcanHe4FeTTpiYwLe9JTFY4FA0syZ7K9ulhZ9rEx8h+uZC1YgpDcVZrJDTDdE8qUj4UWHAB7dbHtlOQlK9dQXH3bsxS1oQUHwZSMhg9T7zU1x+n6YfnGg9my/WVowbUAydwZb99ziFgzIRZy6DrYQ8EAQtG41c8ITy7QghWjBStGC1ZMqIIxxW7vmYQi2L9MXRFTglGn4zWWmWJC1RIWTDDKYGwahNOj8YqYEoyV6Cxq+Zsf0LSCubx/B3N1UQDBkNsgg5LP60erP/yCRk14mLeH2bNxS8wIxjh0w+60jOVacecDz3KZNLGk9EzBLBJyWebaz9aL7Yhrhk42HiT3P7cqYkkw1i9MvOcp8b4VhuR2lNx6wEnBz+OBcV9rSm7ehz75vFxsQ2CNb1rX68Jf4+uGmKoiMP3vNw+ImDBllni4/FDlL+J1wewFFJ/YidZ+fipz123YSs1a8fGQvbqKCCAYoGFjybdwfWqPaQUv0e4fjH8JNr9kFa0oWyt+R6wr30opLbPrXi6IOcHAlDzaT3JNTY34if/vY8VXG76LnFwQrYKxyj2gYBBAsj2MzI1AtWAnugR3ptJVa4ScX38/HFwwsKqL8WdKRp0b0cy1iCrBLDOj3410NXelBuSMp/jmlxkSZftamJLtDd+68i2UEokGTUZUCYYM3G3FpxtyQl00aEqeMOVJ+vSLDZSCRSvRIBdElWA3QDKGSTHm4GTCVRVnjWAAyViGKnsvUpxVgqMRLVgxWrBitGDFaMGK0YIVowUrRgtWjBasGC1YMU2zjviEZY0isn78D43o8OjRWGtOAAAAAElFTkSuQmCC;" vertex="1" parent="1">
          <mxGeometry x="1100" y="300.0" width="75" height="75" as="geometry" />
      </mxCell>
    </object><object id="7750-DCIGW-1" label="7750-DCIGW-1">
      <mxCell style="shape=image;imageAlign=center;imageVerticalAlign=middle;labelPosition=left;align=right;verticalLabelPosition=top;spacingLeft=0;verticalAlign=bottom;spacingTop=0;spacing=0;image=data:image/png,iVBORw0KGgoAAAANSUhEUgAAAFgAAABYCAYAAABxlTA0AAAAAXNSR0IArs4c6QAAAARnQU1BAACxjwv8YQUAAAAJcEhZcwAAFxEAABcRAcom8z8AAAikSURBVHhe7ZwJbBRVGMe3pUBrASkUlVMpV6EUQSlCCqhEjbYiIQEUETFyVEAr3hDwquCFVE2EYoTWCBTk8KgmiBfGqDEoRbkE5JByWW9UtJTC5/d/MwPD8na7OzOvu4vvS35pd3bezPS337735r039flSskijiKZZf2nBKtGCFaMFK0YLVowWrBgtWDFasGK0YMVowYrRghUTlYIbX8IX1lv+XqwRVYKb9SFfYiYlpPYlX1IP+T6xRtQIhlxfF2rf4wbasHE7jc57lF+nyfeVgYyPS+cyncWHJI4n26+uiQrBpty0jFzavfcAIU6cOEE33jY1NMnnXkoJLfrSkFH308hx0ykzeyT5knvK961rIi7YytxuOSz3oJBrxQlm+JiHapfcqCc1aXcFVR2tFuUK5y7hMh3l+9Y1ERV8WuaeLtcKSB5Rm2QW3Ljt5VT582+izKw5xbx/J/m+dU3EBFtyOXP3VBwSYhBHzSw8Wm38tCKoZC3YjwDVwosvv04LFr0tft+6fQ/d9eBs8TsCdXLA6kILtgG5cWa1UHFK7qLlq1lKGyoqXiVe7913iHz1utJtEx8TrxGoLqQNnxZsg7tQPfuNoH0HK4UMxOIV75GvQQZLuYhKSt8V2yr2/0gNL8jmbe1ofP5Msc2K2yc/Tr6G3U8dUwu2kdCVcoffLUQgFiNzIfeci1lKOhUveUdsh+DElv2N7hZnrF3yHPQSErrxxZt3e1qwDVH/duL+6gx6lbPVl8RiIdesl88Q3KiXIdLXge6Z/jy9ULRUVB3o+548phYsoSHfbTXgrznGHSAX2wIJxnuQjP2R7Xa5QAuW0BT4DegEEyzK8P7+ZYAWHCK1CQ6EFhwiWrBiIi0YjafV4Mred4IWbMLnzhkxhdp1v150JT2T/L8XzI1mHN/8jJ1cIMpu2rqTUtsMNLLZC8laMAvmu8LSVe+LsojyjdupuVeSdRXBNO5F8Uk9xC27FetZsshkt9WFFsxAIBo3vomxSy7fZEp2k8lasEkzBrftfLfon8muqgvHgnGyZL4gliImGj3h/JPDlW4Ez5hZxMdK9Tt2qFzItKEX5y+j48ePi+OJ6qKtQ8mOBfMnnX3tOCopfYezrswTFrLcHbsqxB/lRvD6b7fR3KKl4sMKm5I36CUuO2/hSvrn3ypxPAQavgsuGmRUJbJrCIRjwb6ONPn+Z8zTex8/saxwBDdhwX/+fcQsrSY+W7eREs7pceZgUzAcC45Pp+FjptL+A5Ui27xkHx/zy683GQPu3MJLz2+H90luPZDLbKadu/fR9/wtcAyX37FzL33DDVx19TFTLdERzubcYfkUl5QJafLrkOFYMPcf66VeRkmt+otM85IkRsiVnTcI9VL7ivURWBnkCC5bD3UsN5AYe64+Zgg+8k8VDcrN4+0dpOcNimPB4NzexldYBRgnlp0zGE24DMo5AWXF7MmFNOm+p4VYBORemTPemVzgSvDZBOpVXxrlP/ScqZZEIzcod4JzuUCJ4EAD49EKrpUl2uUa1YJLucBzwWgAMOPrPx0UrWAsIjGTpj8xz1RrNGhX5nggF3gqWGRCGk3i7hsWkPgSuUuDuk22b7RgCn7ltbeEXKNaMBs03N3JyoSDZ4JNuWPueFRcKGLB4jKKwyQl3pOViRaQBPytw6LBwSPv9SZzLTwRbModnfewqdaIcXcWGNVFOP3GSIBMbcKNHG6Fcb1eVmuuBZtyb817xNRqRMhre6MJFd80V4ItubZqARGTclXhWLAkc7H0dOjN9/H2tkanvZEb+GZDdt5giJsU2bE8wGl2OxJsyrU3aFVV1TQ2f6aYfsHIlluSMQYrO3cA4rgebcRlZMfyAtxKO5IctmA+CaZX8qbMMtUagYGRXXv2U+VPv4phQ7fgQRgxHhFKJnOGQe6Wbbulx/KCy9F1QyMoO38wwhbMNw+JKb1py/Y9plo1gQ8KAz+hCkaW/XH4L7O09zH4JnTfusjPHwxHVQRncOsOV9Fmzhgr0EF/oaiUZheWUCH/LJzngMJXafN3u8TxMGwZrmBkGgID7oW4Dtk5HNIla5izZ/ccCUY/MT6dWrYfRJtMIZhewSyAaOAEnZiOYdKC5hW7nzKaNaeEj9Xc79guQUPnpH/sSDAwJWMaxZKMWFH2EdfRmcanHe4FeTTpiYwLe9JTFY4FA0syZ7K9ulhZ9rEx8h+uZC1YgpDcVZrJDTDdE8qUj4UWHAB7dbHtlOQlK9dQXH3bsxS1oQUHwZSMhg9T7zU1x+n6YfnGg9my/WVowbUAydwZb99ziFgzIRZy6DrYQ8EAQtG41c8ITy7QghWjBStGC1ZMqIIxxW7vmYQi2L9MXRFTglGn4zWWmWJC1RIWTDDKYGwahNOj8YqYEoyV6Cxq+Zsf0LSCubx/B3N1UQDBkNsgg5LP60erP/yCRk14mLeH2bNxS8wIxjh0w+60jOVacecDz3KZNLGk9EzBLBJyWebaz9aL7Yhrhk42HiT3P7cqYkkw1i9MvOcp8b4VhuR2lNx6wEnBz+OBcV9rSm7ehz75vFxsQ2CNb1rX68Jf4+uGmKoiMP3vNw+ImDBllni4/FDlL+J1wewFFJ/YidZ+fipz123YSs1a8fGQvbqKCCAYoGFjybdwfWqPaQUv0e4fjH8JNr9kFa0oWyt+R6wr30opLbPrXi6IOcHAlDzaT3JNTY34if/vY8VXG76LnFwQrYKxyj2gYBBAsj2MzI1AtWAnugR3ptJVa4ScX38/HFwwsKqL8WdKRp0b0cy1iCrBLDOj3410NXelBuSMp/jmlxkSZftamJLtDd+68i2UEokGTUZUCYYM3G3FpxtyQl00aEqeMOVJ+vSLDZSCRSvRIBdElWA3QDKGSTHm4GTCVRVnjWAAyViGKnsvUpxVgqMRLVgxWrBitGDFaMGK0YIVowUrRgtWjBasGC1YMU2zjviEZY0isn78D43o8OjRWGtOAAAAAElFTkSuQmCC;" vertex="1" parent="1">
          <mxGeometry x="1300" y="100.0" width="75" height="75" as="geometry" />
      </mxCell>
    </object><object id="7750-DCIGW-2" label="7750-DCIGW-2">
      <mxCell style="shape=image;imageAlign=center;imageVerticalAlign=middle;labelPosition=left;align=right;verticalLabelPosition=top;spacingLeft=0;verticalAlign=bottom;spacingTop=0;spacing=0;image=data:image/png,iVBORw0KGgoAAAANSUhEUgAAAFgAAABYCAYAAABxlTA0AAAAAXNSR0IArs4c6QAAAARnQU1BAACxjwv8YQUAAAAJcEhZcwAAFxEAABcRAcom8z8AAAikSURBVHhe7ZwJbBRVGMe3pUBrASkUlVMpV6EUQSlCCqhEjbYiIQEUETFyVEAr3hDwquCFVE2EYoTWCBTk8KgmiBfGqDEoRbkE5JByWW9UtJTC5/d/MwPD8na7OzOvu4vvS35pd3bezPS337735r039flSskijiKZZf2nBKtGCFaMFK0YLVowWrBgtWDFasGK0YMVowYrRghUTlYIbX8IX1lv+XqwRVYKb9SFfYiYlpPYlX1IP+T6xRtQIhlxfF2rf4wbasHE7jc57lF+nyfeVgYyPS+cyncWHJI4n26+uiQrBpty0jFzavfcAIU6cOEE33jY1NMnnXkoJLfrSkFH308hx0ykzeyT5knvK961rIi7YytxuOSz3oJBrxQlm+JiHapfcqCc1aXcFVR2tFuUK5y7hMh3l+9Y1ERV8WuaeLtcKSB5Rm2QW3Ljt5VT582+izKw5xbx/J/m+dU3EBFtyOXP3VBwSYhBHzSw8Wm38tCKoZC3YjwDVwosvv04LFr0tft+6fQ/d9eBs8TsCdXLA6kILtgG5cWa1UHFK7qLlq1lKGyoqXiVe7913iHz1utJtEx8TrxGoLqQNnxZsg7tQPfuNoH0HK4UMxOIV75GvQQZLuYhKSt8V2yr2/0gNL8jmbe1ofP5Msc2K2yc/Tr6G3U8dUwu2kdCVcoffLUQgFiNzIfeci1lKOhUveUdsh+DElv2N7hZnrF3yHPQSErrxxZt3e1qwDVH/duL+6gx6lbPVl8RiIdesl88Q3KiXIdLXge6Z/jy9ULRUVB3o+548phYsoSHfbTXgrznGHSAX2wIJxnuQjP2R7Xa5QAuW0BT4DegEEyzK8P7+ZYAWHCK1CQ6EFhwiWrBiIi0YjafV4Mred4IWbMLnzhkxhdp1v150JT2T/L8XzI1mHN/8jJ1cIMpu2rqTUtsMNLLZC8laMAvmu8LSVe+LsojyjdupuVeSdRXBNO5F8Uk9xC27FetZsshkt9WFFsxAIBo3vomxSy7fZEp2k8lasEkzBrftfLfon8muqgvHgnGyZL4gliImGj3h/JPDlW4Ez5hZxMdK9Tt2qFzItKEX5y+j48ePi+OJ6qKtQ8mOBfMnnX3tOCopfYezrswTFrLcHbsqxB/lRvD6b7fR3KKl4sMKm5I36CUuO2/hSvrn3ypxPAQavgsuGmRUJbJrCIRjwb6ONPn+Z8zTex8/saxwBDdhwX/+fcQsrSY+W7eREs7pceZgUzAcC45Pp+FjptL+A5Ui27xkHx/zy683GQPu3MJLz2+H90luPZDLbKadu/fR9/wtcAyX37FzL33DDVx19TFTLdERzubcYfkUl5QJafLrkOFYMPcf66VeRkmt+otM85IkRsiVnTcI9VL7ivURWBnkCC5bD3UsN5AYe64+Zgg+8k8VDcrN4+0dpOcNimPB4NzexldYBRgnlp0zGE24DMo5AWXF7MmFNOm+p4VYBORemTPemVzgSvDZBOpVXxrlP/ScqZZEIzcod4JzuUCJ4EAD49EKrpUl2uUa1YJLucBzwWgAMOPrPx0UrWAsIjGTpj8xz1RrNGhX5nggF3gqWGRCGk3i7hsWkPgSuUuDuk22b7RgCn7ltbeEXKNaMBs03N3JyoSDZ4JNuWPueFRcKGLB4jKKwyQl3pOViRaQBPytw6LBwSPv9SZzLTwRbModnfewqdaIcXcWGNVFOP3GSIBMbcKNHG6Fcb1eVmuuBZtyb817xNRqRMhre6MJFd80V4ItubZqARGTclXhWLAkc7H0dOjN9/H2tkanvZEb+GZDdt5giJsU2bE8wGl2OxJsyrU3aFVV1TQ2f6aYfsHIlluSMQYrO3cA4rgebcRlZMfyAtxKO5IctmA+CaZX8qbMMtUagYGRXXv2U+VPv4phQ7fgQRgxHhFKJnOGQe6Wbbulx/KCy9F1QyMoO38wwhbMNw+JKb1py/Y9plo1gQ8KAz+hCkaW/XH4L7O09zH4JnTfusjPHwxHVQRncOsOV9Fmzhgr0EF/oaiUZheWUCH/LJzngMJXafN3u8TxMGwZrmBkGgID7oW4Dtk5HNIla5izZ/ccCUY/MT6dWrYfRJtMIZhewSyAaOAEnZiOYdKC5hW7nzKaNaeEj9Xc79guQUPnpH/sSDAwJWMaxZKMWFH2EdfRmcanHe4FeTTpiYwLe9JTFY4FA0syZ7K9ulhZ9rEx8h+uZC1YgpDcVZrJDTDdE8qUj4UWHAB7dbHtlOQlK9dQXH3bsxS1oQUHwZSMhg9T7zU1x+n6YfnGg9my/WVowbUAydwZb99ziFgzIRZy6DrYQ8EAQtG41c8ITy7QghWjBStGC1ZMqIIxxW7vmYQi2L9MXRFTglGn4zWWmWJC1RIWTDDKYGwahNOj8YqYEoyV6Cxq+Zsf0LSCubx/B3N1UQDBkNsgg5LP60erP/yCRk14mLeH2bNxS8wIxjh0w+60jOVacecDz3KZNLGk9EzBLBJyWebaz9aL7Yhrhk42HiT3P7cqYkkw1i9MvOcp8b4VhuR2lNx6wEnBz+OBcV9rSm7ehz75vFxsQ2CNb1rX68Jf4+uGmKoiMP3vNw+ImDBllni4/FDlL+J1wewFFJ/YidZ+fipz123YSs1a8fGQvbqKCCAYoGFjybdwfWqPaQUv0e4fjH8JNr9kFa0oWyt+R6wr30opLbPrXi6IOcHAlDzaT3JNTY34if/vY8VXG76LnFwQrYKxyj2gYBBAsj2MzI1AtWAnugR3ptJVa4ScX38/HFwwsKqL8WdKRp0b0cy1iCrBLDOj3410NXelBuSMp/jmlxkSZftamJLtDd+68i2UEokGTUZUCYYM3G3FpxtyQl00aEqeMOVJ+vSLDZSCRSvRIBdElWA3QDKGSTHm4GTCVRVnjWAAyViGKnsvUpxVgqMRLVgxWrBitGDFaMGK0YIVowUrRgtWjBasGC1YMU2zjviEZY0isn78D43o8OjRWGtOAAAAAElFTkSuQmCC;" vertex="1" parent="1">
          <mxGeometry x="1300" y="300.0" width="75" height="75" as="geometry" />
      </mxCell>
    </object><object id="7750-DCIGW-3" label="7750-DCIGW-3">
      <mxCell style="shape=image;imageAlign=center;imageVerticalAlign=middle;labelPosition=left;align=right;verticalLabelPosition=top;spacingLeft=0;verticalAlign=bottom;spacingTop=0;spacing=0;image=data:image/png,iVBORw0KGgoAAAANSUhEUgAAAFgAAABYCAYAAABxlTA0AAAAAXNSR0IArs4c6QAAAARnQU1BAACxjwv8YQUAAAAJcEhZcwAAFxEAABcRAcom8z8AAAikSURBVHhe7ZwJbBRVGMe3pUBrASkUlVMpV6EUQSlCCqhEjbYiIQEUETFyVEAr3hDwquCFVE2EYoTWCBTk8KgmiBfGqDEoRbkE5JByWW9UtJTC5/d/MwPD8na7OzOvu4vvS35pd3bezPS337735r039flSskijiKZZf2nBKtGCFaMFK0YLVowWrBgtWDFasGK0YMVowYrRghUTlYIbX8IX1lv+XqwRVYKb9SFfYiYlpPYlX1IP+T6xRtQIhlxfF2rf4wbasHE7jc57lF+nyfeVgYyPS+cyncWHJI4n26+uiQrBpty0jFzavfcAIU6cOEE33jY1NMnnXkoJLfrSkFH308hx0ykzeyT5knvK961rIi7YytxuOSz3oJBrxQlm+JiHapfcqCc1aXcFVR2tFuUK5y7hMh3l+9Y1ERV8WuaeLtcKSB5Rm2QW3Ljt5VT582+izKw5xbx/J/m+dU3EBFtyOXP3VBwSYhBHzSw8Wm38tCKoZC3YjwDVwosvv04LFr0tft+6fQ/d9eBs8TsCdXLA6kILtgG5cWa1UHFK7qLlq1lKGyoqXiVe7913iHz1utJtEx8TrxGoLqQNnxZsg7tQPfuNoH0HK4UMxOIV75GvQQZLuYhKSt8V2yr2/0gNL8jmbe1ofP5Msc2K2yc/Tr6G3U8dUwu2kdCVcoffLUQgFiNzIfeci1lKOhUveUdsh+DElv2N7hZnrF3yHPQSErrxxZt3e1qwDVH/duL+6gx6lbPVl8RiIdesl88Q3KiXIdLXge6Z/jy9ULRUVB3o+548phYsoSHfbTXgrznGHSAX2wIJxnuQjP2R7Xa5QAuW0BT4DegEEyzK8P7+ZYAWHCK1CQ6EFhwiWrBiIi0YjafV4Mred4IWbMLnzhkxhdp1v150JT2T/L8XzI1mHN/8jJ1cIMpu2rqTUtsMNLLZC8laMAvmu8LSVe+LsojyjdupuVeSdRXBNO5F8Uk9xC27FetZsshkt9WFFsxAIBo3vomxSy7fZEp2k8lasEkzBrftfLfon8muqgvHgnGyZL4gliImGj3h/JPDlW4Ez5hZxMdK9Tt2qFzItKEX5y+j48ePi+OJ6qKtQ8mOBfMnnX3tOCopfYezrswTFrLcHbsqxB/lRvD6b7fR3KKl4sMKm5I36CUuO2/hSvrn3ypxPAQavgsuGmRUJbJrCIRjwb6ONPn+Z8zTex8/saxwBDdhwX/+fcQsrSY+W7eREs7pceZgUzAcC45Pp+FjptL+A5Ui27xkHx/zy683GQPu3MJLz2+H90luPZDLbKadu/fR9/wtcAyX37FzL33DDVx19TFTLdERzubcYfkUl5QJafLrkOFYMPcf66VeRkmt+otM85IkRsiVnTcI9VL7ivURWBnkCC5bD3UsN5AYe64+Zgg+8k8VDcrN4+0dpOcNimPB4NzexldYBRgnlp0zGE24DMo5AWXF7MmFNOm+p4VYBORemTPemVzgSvDZBOpVXxrlP/ScqZZEIzcod4JzuUCJ4EAD49EKrpUl2uUa1YJLucBzwWgAMOPrPx0UrWAsIjGTpj8xz1RrNGhX5nggF3gqWGRCGk3i7hsWkPgSuUuDuk22b7RgCn7ltbeEXKNaMBs03N3JyoSDZ4JNuWPueFRcKGLB4jKKwyQl3pOViRaQBPytw6LBwSPv9SZzLTwRbModnfewqdaIcXcWGNVFOP3GSIBMbcKNHG6Fcb1eVmuuBZtyb817xNRqRMhre6MJFd80V4ItubZqARGTclXhWLAkc7H0dOjN9/H2tkanvZEb+GZDdt5giJsU2bE8wGl2OxJsyrU3aFVV1TQ2f6aYfsHIlluSMQYrO3cA4rgebcRlZMfyAtxKO5IctmA+CaZX8qbMMtUagYGRXXv2U+VPv4phQ7fgQRgxHhFKJnOGQe6Wbbulx/KCy9F1QyMoO38wwhbMNw+JKb1py/Y9plo1gQ8KAz+hCkaW/XH4L7O09zH4JnTfusjPHwxHVQRncOsOV9Fmzhgr0EF/oaiUZheWUCH/LJzngMJXafN3u8TxMGwZrmBkGgID7oW4Dtk5HNIla5izZ/ccCUY/MT6dWrYfRJtMIZhewSyAaOAEnZiOYdKC5hW7nzKaNaeEj9Xc79guQUPnpH/sSDAwJWMaxZKMWFH2EdfRmcanHe4FeTTpiYwLe9JTFY4FA0syZ7K9ulhZ9rEx8h+uZC1YgpDcVZrJDTDdE8qUj4UWHAB7dbHtlOQlK9dQXH3bsxS1oQUHwZSMhg9T7zU1x+n6YfnGg9my/WVowbUAydwZb99ziFgzIRZy6DrYQ8EAQtG41c8ITy7QghWjBStGC1ZMqIIxxW7vmYQi2L9MXRFTglGn4zWWmWJC1RIWTDDKYGwahNOj8YqYEoyV6Cxq+Zsf0LSCubx/B3N1UQDBkNsgg5LP60erP/yCRk14mLeH2bNxS8wIxjh0w+60jOVacecDz3KZNLGk9EzBLBJyWebaz9aL7Yhrhk42HiT3P7cqYkkw1i9MvOcp8b4VhuR2lNx6wEnBz+OBcV9rSm7ehz75vFxsQ2CNb1rX68Jf4+uGmKoiMP3vNw+ImDBllni4/FDlL+J1wewFFJ/YidZ+fipz123YSs1a8fGQvbqKCCAYoGFjybdwfWqPaQUv0e4fjH8JNr9kFa0oWyt+R6wr30opLbPrXi6IOcHAlDzaT3JNTY34if/vY8VXG76LnFwQrYKxyj2gYBBAsj2MzI1AtWAnugR3ptJVa4ScX38/HFwwsKqL8WdKRp0b0cy1iCrBLDOj3410NXelBuSMp/jmlxkSZftamJLtDd+68i2UEokGTUZUCYYM3G3FpxtyQl00aEqeMOVJ+vSLDZSCRSvRIBdElWA3QDKGSTHm4GTCVRVnjWAAyViGKnsvUpxVgqMRLVgxWrBitGDFaMGK0YIVowUrRgtWjBasGC1YMU2zjviEZY0isn78D43o8OjRWGtOAAAAAElFTkSuQmCC;" vertex="1" parent="1">
          <mxGeometry x="1500" y="200.0" width="75" height="75" as="geometry" />
      </mxCell>
    </object><object id="L2-SW-1" label="L2-SW-1">
      <mxCell style="shape=image;imageAlign=center;imageVerticalAlign=middle;labelPosition=left;align=right;verticalLabelPosition=top;spacingLeft=0;verticalAlign=bottom;spacingTop=0;spacing=0;image=data:image/png,iVBORw0KGgoAAAANSUhEUgAAAFgAAABYCAYAAABxlTA0AAAAAXNSR0IArs4c6QAAAARnQU1BAACxjwv8YQUAAAAJcEhZcwAAFxEAABcRAcom8z8AAAikSURBVHhe7ZwJbBRVGMe3pUBrASkUlVMpV6EUQSlCCqhEjbYiIQEUETFyVEAr3hDwquCFVE2EYoTWCBTk8KgmiBfGqDEoRbkE5JByWW9UtJTC5/d/MwPD8na7OzOvu4vvS35pd3bezPS337735r039flSskijiKZZf2nBKtGCFaMFK0YLVowWrBgtWDFasGK0YMVowYrRghUTlYIbX8IX1lv+XqwRVYKb9SFfYiYlpPYlX1IP+T6xRtQIhlxfF2rf4wbasHE7jc57lF+nyfeVgYyPS+cyncWHJI4n26+uiQrBpty0jFzavfcAIU6cOEE33jY1NMnnXkoJLfrSkFH308hx0ykzeyT5knvK961rIi7YytxuOSz3oJBrxQlm+JiHapfcqCc1aXcFVR2tFuUK5y7hMh3l+9Y1ERV8WuaeLtcKSB5Rm2QW3Ljt5VT582+izKw5xbx/J/m+dU3EBFtyOXP3VBwSYhBHzSw8Wm38tCKoZC3YjwDVwosvv04LFr0tft+6fQ/d9eBs8TsCdXLA6kILtgG5cWa1UHFK7qLlq1lKGyoqXiVe7913iHz1utJtEx8TrxGoLqQNnxZsg7tQPfuNoH0HK4UMxOIV75GvQQZLuYhKSt8V2yr2/0gNL8jmbe1ofP5Msc2K2yc/Tr6G3U8dUwu2kdCVcoffLUQgFiNzIfeci1lKOhUveUdsh+DElv2N7hZnrF3yHPQSErrxxZt3e1qwDVH/duL+6gx6lbPVl8RiIdesl88Q3KiXIdLXge6Z/jy9ULRUVB3o+548phYsoSHfbTXgrznGHSAX2wIJxnuQjP2R7Xa5QAuW0BT4DegEEyzK8P7+ZYAWHCK1CQ6EFhwiWrBiIi0YjafV4Mred4IWbMLnzhkxhdp1v150JT2T/L8XzI1mHN/8jJ1cIMpu2rqTUtsMNLLZC8laMAvmu8LSVe+LsojyjdupuVeSdRXBNO5F8Uk9xC27FetZsshkt9WFFsxAIBo3vomxSy7fZEp2k8lasEkzBrftfLfon8muqgvHgnGyZL4gliImGj3h/JPDlW4Ez5hZxMdK9Tt2qFzItKEX5y+j48ePi+OJ6qKtQ8mOBfMnnX3tOCopfYezrswTFrLcHbsqxB/lRvD6b7fR3KKl4sMKm5I36CUuO2/hSvrn3ypxPAQavgsuGmRUJbJrCIRjwb6ONPn+Z8zTex8/saxwBDdhwX/+fcQsrSY+W7eREs7pceZgUzAcC45Pp+FjptL+A5Ui27xkHx/zy683GQPu3MJLz2+H90luPZDLbKadu/fR9/wtcAyX37FzL33DDVx19TFTLdERzubcYfkUl5QJafLrkOFYMPcf66VeRkmt+otM85IkRsiVnTcI9VL7ivURWBnkCC5bD3UsN5AYe64+Zgg+8k8VDcrN4+0dpOcNimPB4NzexldYBRgnlp0zGE24DMo5AWXF7MmFNOm+p4VYBORemTPemVzgSvDZBOpVXxrlP/ScqZZEIzcod4JzuUCJ4EAD49EKrpUl2uUa1YJLucBzwWgAMOPrPx0UrWAsIjGTpj8xz1RrNGhX5nggF3gqWGRCGk3i7hsWkPgSuUuDuk22b7RgCn7ltbeEXKNaMBs03N3JyoSDZ4JNuWPueFRcKGLB4jKKwyQl3pOViRaQBPytw6LBwSPv9SZzLTwRbModnfewqdaIcXcWGNVFOP3GSIBMbcKNHG6Fcb1eVmuuBZtyb817xNRqRMhre6MJFd80V4ItubZqARGTclXhWLAkc7H0dOjN9/H2tkanvZEb+GZDdt5giJsU2bE8wGl2OxJsyrU3aFVV1TQ2f6aYfsHIlluSMQYrO3cA4rgebcRlZMfyAtxKO5IctmA+CaZX8qbMMtUagYGRXXv2U+VPv4phQ7fgQRgxHhFKJnOGQe6Wbbulx/KCy9F1QyMoO38wwhbMNw+JKb1py/Y9plo1gQ8KAz+hCkaW/XH4L7O09zH4JnTfusjPHwxHVQRncOsOV9Fmzhgr0EF/oaiUZheWUCH/LJzngMJXafN3u8TxMGwZrmBkGgID7oW4Dtk5HNIla5izZ/ccCUY/MT6dWrYfRJtMIZhewSyAaOAEnZiOYdKC5hW7nzKaNaeEj9Xc79guQUPnpH/sSDAwJWMaxZKMWFH2EdfRmcanHe4FeTTpiYwLe9JTFY4FA0syZ7K9ulhZ9rEx8h+uZC1YgpDcVZrJDTDdE8qUj4UWHAB7dbHtlOQlK9dQXH3bsxS1oQUHwZSMhg9T7zU1x+n6YfnGg9my/WVowbUAydwZb99ziFgzIRZy6DrYQ8EAQtG41c8ITy7QghWjBStGC1ZMqIIxxW7vmYQi2L9MXRFTglGn4zWWmWJC1RIWTDDKYGwahNOj8YqYEoyV6Cxq+Zsf0LSCubx/B3N1UQDBkNsgg5LP60erP/yCRk14mLeH2bNxS8wIxjh0w+60jOVacecDz3KZNLGk9EzBLBJyWebaz9aL7Yhrhk42HiT3P7cqYkkw1i9MvOcp8b4VhuR2lNx6wEnBz+OBcV9rSm7ehz75vFxsQ2CNb1rX68Jf4+uGmKoiMP3vNw+ImDBllni4/FDlL+J1wewFFJ/YidZ+fipz123YSs1a8fGQvbqKCCAYoGFjybdwfWqPaQUv0e4fjH8JNr9kFa0oWyt+R6wr30opLbPrXi6IOcHAlDzaT3JNTY34if/vY8VXG76LnFwQrYKxyj2gYBBAsj2MzI1AtWAnugR3ptJVa4ScX38/HFwwsKqL8WdKRp0b0cy1iCrBLDOj3410NXelBuSMp/jmlxkSZftamJLtDd+68i2UEokGTUZUCYYM3G3FpxtyQl00aEqeMOVJ+vSLDZSCRSvRIBdElWA3QDKGSTHm4GTCVRVnjWAAyViGKnsvUpxVgqMRLVgxWrBitGDFaMGK0YIVowUrRgtWjBasGC1YMU2zjviEZY0isn78D43o8OjRWGtOAAAAAElFTkSuQmCC;" vertex="1" parent="1">
          <mxGeometry x="500" y="100.0" width="75" height="75" as="geometry" />
      </mxCell>
    </object><object id="L2-SW-2" label="L2-SW-2">
      <mxCell style="shape=image;imageAlign=center;imageVerticalAlign=middle;labelPosition=left;align=right;verticalLabelPosition=top;spacingLeft=0;verticalAlign=bottom;spacingTop=0;spacing=0;image=data:image/png,iVBORw0KGgoAAAANSUhEUgAAAFgAAABYCAYAAABxlTA0AAAAAXNSR0IArs4c6QAAAARnQU1BAACxjwv8YQUAAAAJcEhZcwAAFxEAABcRAcom8z8AAAikSURBVHhe7ZwJbBRVGMe3pUBrASkUlVMpV6EUQSlCCqhEjbYiIQEUETFyVEAr3hDwquCFVE2EYoTWCBTk8KgmiBfGqDEoRbkE5JByWW9UtJTC5/d/MwPD8na7OzOvu4vvS35pd3bezPS337735r039flSskijiKZZf2nBKtGCFaMFK0YLVowWrBgtWDFasGK0YMVowYrRghUTlYIbX8IX1lv+XqwRVYKb9SFfYiYlpPYlX1IP+T6xRtQIhlxfF2rf4wbasHE7jc57lF+nyfeVgYyPS+cyncWHJI4n26+uiQrBpty0jFzavfcAIU6cOEE33jY1NMnnXkoJLfrSkFH308hx0ykzeyT5knvK961rIi7YytxuOSz3oJBrxQlm+JiHapfcqCc1aXcFVR2tFuUK5y7hMh3l+9Y1ERV8WuaeLtcKSB5Rm2QW3Ljt5VT582+izKw5xbx/J/m+dU3EBFtyOXP3VBwSYhBHzSw8Wm38tCKoZC3YjwDVwosvv04LFr0tft+6fQ/d9eBs8TsCdXLA6kILtgG5cWa1UHFK7qLlq1lKGyoqXiVe7913iHz1utJtEx8TrxGoLqQNnxZsg7tQPfuNoH0HK4UMxOIV75GvQQZLuYhKSt8V2yr2/0gNL8jmbe1ofP5Msc2K2yc/Tr6G3U8dUwu2kdCVcoffLUQgFiNzIfeci1lKOhUveUdsh+DElv2N7hZnrF3yHPQSErrxxZt3e1qwDVH/duL+6gx6lbPVl8RiIdesl88Q3KiXIdLXge6Z/jy9ULRUVB3o+548phYsoSHfbTXgrznGHSAX2wIJxnuQjP2R7Xa5QAuW0BT4DegEEyzK8P7+ZYAWHCK1CQ6EFhwiWrBiIi0YjafV4Mred4IWbMLnzhkxhdp1v150JT2T/L8XzI1mHN/8jJ1cIMpu2rqTUtsMNLLZC8laMAvmu8LSVe+LsojyjdupuVeSdRXBNO5F8Uk9xC27FetZsshkt9WFFsxAIBo3vomxSy7fZEp2k8lasEkzBrftfLfon8muqgvHgnGyZL4gliImGj3h/JPDlW4Ez5hZxMdK9Tt2qFzItKEX5y+j48ePi+OJ6qKtQ8mOBfMnnX3tOCopfYezrswTFrLcHbsqxB/lRvD6b7fR3KKl4sMKm5I36CUuO2/hSvrn3ypxPAQavgsuGmRUJbJrCIRjwb6ONPn+Z8zTex8/saxwBDdhwX/+fcQsrSY+W7eREs7pceZgUzAcC45Pp+FjptL+A5Ui27xkHx/zy683GQPu3MJLz2+H90luPZDLbKadu/fR9/wtcAyX37FzL33DDVx19TFTLdERzubcYfkUl5QJafLrkOFYMPcf66VeRkmt+otM85IkRsiVnTcI9VL7ivURWBnkCC5bD3UsN5AYe64+Zgg+8k8VDcrN4+0dpOcNimPB4NzexldYBRgnlp0zGE24DMo5AWXF7MmFNOm+p4VYBORemTPemVzgSvDZBOpVXxrlP/ScqZZEIzcod4JzuUCJ4EAD49EKrpUl2uUa1YJLucBzwWgAMOPrPx0UrWAsIjGTpj8xz1RrNGhX5nggF3gqWGRCGk3i7hsWkPgSuUuDuk22b7RgCn7ltbeEXKNaMBs03N3JyoSDZ4JNuWPueFRcKGLB4jKKwyQl3pOViRaQBPytw6LBwSPv9SZzLTwRbModnfewqdaIcXcWGNVFOP3GSIBMbcKNHG6Fcb1eVmuuBZtyb817xNRqRMhre6MJFd80V4ItubZqARGTclXhWLAkc7H0dOjN9/H2tkanvZEb+GZDdt5giJsU2bE8wGl2OxJsyrU3aFVV1TQ2f6aYfsHIlluSMQYrO3cA4rgebcRlZMfyAtxKO5IctmA+CaZX8qbMMtUagYGRXXv2U+VPv4phQ7fgQRgxHhFKJnOGQe6Wbbulx/KCy9F1QyMoO38wwhbMNw+JKb1py/Y9plo1gQ8KAz+hCkaW/XH4L7O09zH4JnTfusjPHwxHVQRncOsOV9Fmzhgr0EF/oaiUZheWUCH/LJzngMJXafN3u8TxMGwZrmBkGgID7oW4Dtk5HNIla5izZ/ccCUY/MT6dWrYfRJtMIZhewSyAaOAEnZiOYdKC5hW7nzKaNaeEj9Xc79guQUPnpH/sSDAwJWMaxZKMWFH2EdfRmcanHe4FeTTpiYwLe9JTFY4FA0syZ7K9ulhZ9rEx8h+uZC1YgpDcVZrJDTDdE8qUj4UWHAB7dbHtlOQlK9dQXH3bsxS1oQUHwZSMhg9T7zU1x+n6YfnGg9my/WVowbUAydwZb99ziFgzIRZy6DrYQ8EAQtG41c8ITy7QghWjBStGC1ZMqIIxxW7vmYQi2L9MXRFTglGn4zWWmWJC1RIWTDDKYGwahNOj8YqYEoyV6Cxq+Zsf0LSCubx/B3N1UQDBkNsgg5LP60erP/yCRk14mLeH2bNxS8wIxjh0w+60jOVacecDz3KZNLGk9EzBLBJyWebaz9aL7Yhrhk42HiT3P7cqYkkw1i9MvOcp8b4VhuR2lNx6wEnBz+OBcV9rSm7ehz75vFxsQ2CNb1rX68Jf4+uGmKoiMP3vNw+ImDBllni4/FDlL+J1wewFFJ/YidZ+fipz123YSs1a8fGQvbqKCCAYoGFjybdwfWqPaQUv0e4fjH8JNr9kFa0oWyt+R6wr30opLbPrXi6IOcHAlDzaT3JNTY34if/vY8VXG76LnFwQrYKxyj2gYBBAsj2MzI1AtWAnugR3ptJVa4ScX38/HFwwsKqL8WdKRp0b0cy1iCrBLDOj3410NXelBuSMp/jmlxkSZftamJLtDd+68i2UEokGTUZUCYYM3G3FpxtyQl00aEqeMOVJ+vSLDZSCRSvRIBdElWA3QDKGSTHm4GTCVRVnjWAAyViGKnsvUpxVgqMRLVgxWrBitGDFaMGK0YIVowUrRgtWjBasGC1YMU2zjviEZY0isn78D43o8OjRWGtOAAAAAElFTkSuQmCC;" vertex="1" parent="1">
          <mxGeometry x="500" y="300.0" width="75" height="75" as="geometry" />
      </mxCell>
    </object><object id="client1" label="client1">
      <mxCell style="shape=image;imageAlign=center;imageVerticalAlign=middle;labelPosition=left;align=right;verticalLabelPosition=top;spacingLeft=0;verticalAlign=bottom;spacingTop=0;spacing=0;image=data:image/png,iVBORw0KGgoAAAANSUhEUgAAAFkAAABZCAMAAABi1XidAAAAAXNSR0IArs4c6QAAAARnQU1BAACxjwv8YQUAAAHCUExURQAQNgARNgARNQAAHAAAHQAAIQAAIwAAJAAAJQAAJgAAJwABJgABJwACKAADKQAEKgAFKwAGLAAHLAAHLQAILAAILQAILgAJLgAKLwALMAAMMAAMMQANMQANMgAOMgAOMwAPMwAPNAAQNAARNQASNQASNgILLwQOMgUWOQgTNwgYOwkVOQkZPAwcPgwcPw0dPw4eQA8aPA8cPg8fQRwrSx0sTB4pSR4tTCEwTyMyUSMzUiQzUiU0UyY1Uyk0Uis5Vy07WTA7WDA+XDRBXjU/XDdGYT1LZkBJZUBKZUNPaUdSbEdUbklSbEtXcExWb05ac1NedlVgeFljel5pgF9mfl9qgWBrgmZwhmxziHF6jnJ8kHN8kHR9kXV+knV/knZ/k3eAlHh/kniBlHiClHl/knuAk4CJmoaNnoePoImRoYuTo5GZqJSaqZacq5eerJeerZicq5ierZmdrJqfrpqhr6OntKmsua+1wLC0wLW6xL7BysLFztHU2tHU29TX3d/h5t/i5uLl6Obo6+fo7Ofp7Ojp7Orr7urs7+zt8PHy9PT19/X29/b29/b2+Pb3+Pf4+fj5+vn6+vv8/P3+/v7+/v////GBh4cAAAADdFJOU+jz9a/B8SsAAAAJcEhZcwAAFxEAABcRAcom8z8AAAImSURBVGhD7dj3UxNBFMDxRMDLYnJJFIgRiHBrLNiw994LKjYExV6x9441YgFr3v/rJfcu827XC7O5yy/Ofn/Km8x95mazk7m9CK9TUS2TtEzTMk3LtP9EtrIZ9bIWXl1JlhOpFatWKtebNPF6N1HONR98/mli/Jta4xOFZ3tYFxpOgtxtXoNauxD3rIggswGAn48vD59Ta/jKkz8A/dNQKeeVs8s/w9jOJiOmmtG09wu8XdCJTimvHD8MMNCIg1qNFwF201/RKxtDUNyQxkGuIyPtrUrJ7QAnGA6lBPmMLc/AQSyfmb8mMxsHqfQWgJNV5NNQ3Ognz1z96sftuX53nd5a/Z6rycYle2ut9/s2iGzuB3izrB0nsSAyb+s7v7Z1Dg5igWRuxtry+FEqmFwtLdO0TNMyTcs0LdO0TNMyTcs0LdMmk+1n/nU1ypM88w9CcVMKB7XMHQDH/OXEAYCzDf7HHP+6Gq4D7EriVMordyx8B18PMYMpFjPiR3/B6Dx6PvLKnB2xzyIv7t29r9adBy/t6/YlUCknyJyd+l06Q9fQ9+N0lWXZYtsejn4ofFSr8P71rc1eWJI5TzVbS5aqtribpYUjjCxznpulXLt8tv2XHE71l/MpfFMRvOnOgrtya//IjXAa6Wspi65sPMVtGbxHU8uiK8dvjoXVVed1kitbi3rDqsf5R3Nl3pkNq5wDVuTQ0zJNyzQt07RMq588JRKtT9HIXyTFPzou9sSWAAAAAElFTkSuQmCC;" vertex="1" parent="1">
          <mxGeometry x="300" y="100" width="75" height="75" as="geometry" />
      </mxCell>
    </object><object id="client2" label="client2">
      <mxCell style="shape=image;imageAlign=center;imageVerticalAlign=middle;labelPosition=left;align=right;verticalLabelPosition=top;spacingLeft=0;verticalAlign=bottom;spacingTop=0;spacing=0;image=data:image/png,iVBORw0KGgoAAAANSUhEUgAAAFkAAABZCAMAAABi1XidAAAAAXNSR0IArs4c6QAAAARnQU1BAACxjwv8YQUAAAHCUExURQAQNgARNgARNQAAHAAAHQAAIQAAIwAAJAAAJQAAJgAAJwABJgABJwACKAADKQAEKgAFKwAGLAAHLAAHLQAILAAILQAILgAJLgAKLwALMAAMMAAMMQANMQANMgAOMgAOMwAPMwAPNAAQNAARNQASNQASNgILLwQOMgUWOQgTNwgYOwkVOQkZPAwcPgwcPw0dPw4eQA8aPA8cPg8fQRwrSx0sTB4pSR4tTCEwTyMyUSMzUiQzUiU0UyY1Uyk0Uis5Vy07WTA7WDA+XDRBXjU/XDdGYT1LZkBJZUBKZUNPaUdSbEdUbklSbEtXcExWb05ac1NedlVgeFljel5pgF9mfl9qgWBrgmZwhmxziHF6jnJ8kHN8kHR9kXV+knV/knZ/k3eAlHh/kniBlHiClHl/knuAk4CJmoaNnoePoImRoYuTo5GZqJSaqZacq5eerJeerZicq5ierZmdrJqfrpqhr6OntKmsua+1wLC0wLW6xL7BysLFztHU2tHU29TX3d/h5t/i5uLl6Obo6+fo7Ofp7Ojp7Orr7urs7+zt8PHy9PT19/X29/b29/b2+Pb3+Pf4+fj5+vn6+vv8/P3+/v7+/v////GBh4cAAAADdFJOU+jz9a/B8SsAAAAJcEhZcwAAFxEAABcRAcom8z8AAAImSURBVGhD7dj3UxNBFMDxRMDLYnJJFIgRiHBrLNiw994LKjYExV6x9441YgFr3v/rJfcu827XC7O5yy/Ofn/Km8x95mazk7m9CK9TUS2TtEzTMk3LtP9EtrIZ9bIWXl1JlhOpFatWKtebNPF6N1HONR98/mli/Jta4xOFZ3tYFxpOgtxtXoNauxD3rIggswGAn48vD59Ta/jKkz8A/dNQKeeVs8s/w9jOJiOmmtG09wu8XdCJTimvHD8MMNCIg1qNFwF201/RKxtDUNyQxkGuIyPtrUrJ7QAnGA6lBPmMLc/AQSyfmb8mMxsHqfQWgJNV5NNQ3Ognz1z96sftuX53nd5a/Z6rycYle2ut9/s2iGzuB3izrB0nsSAyb+s7v7Z1Dg5igWRuxtry+FEqmFwtLdO0TNMyTcs0LdO0TNMyTcs0LdMmk+1n/nU1ypM88w9CcVMKB7XMHQDH/OXEAYCzDf7HHP+6Gq4D7EriVMordyx8B18PMYMpFjPiR3/B6Dx6PvLKnB2xzyIv7t29r9adBy/t6/YlUCknyJyd+l06Q9fQ9+N0lWXZYtsejn4ofFSr8P71rc1eWJI5TzVbS5aqtribpYUjjCxznpulXLt8tv2XHE71l/MpfFMRvOnOgrtya//IjXAa6Wspi65sPMVtGbxHU8uiK8dvjoXVVed1kitbi3rDqsf5R3Nl3pkNq5wDVuTQ0zJNyzQt07RMq588JRKtT9HIXyTFPzou9sSWAAAAAElFTkSuQmCC;" vertex="1" parent="1">
          <mxGeometry x="300" y="300" width="75" height="75" as="geometry" />
      </mxCell>
    </object><object id="server" label="server">
      <mxCell style="shape=image;imageAlign=center;imageVerticalAlign=middle;labelPosition=left;align=right;verticalLabelPosition=top;spacingLeft=0;verticalAlign=bottom;spacingTop=0;spacing=0;image=data:image/png,iVBORw0KGgoAAAANSUhEUgAAAFkAAABZCAMAAABi1XidAAAAAXNSR0IArs4c6QAAAARnQU1BAACxjwv8YQUAAAHCUExURQAQNgARNgARNQAAHAAAHQAAIQAAIwAAJAAAJQAAJgAAJwABJgABJwACKAADKQAEKgAFKwAGLAAHLAAHLQAILAAILQAILgAJLgAKLwALMAAMMAAMMQANMQANMgAOMgAOMwAPMwAPNAAQNAARNQASNQASNgILLwQOMgUWOQgTNwgYOwkVOQkZPAwcPgwcPw0dPw4eQA8aPA8cPg8fQRwrSx0sTB4pSR4tTCEwTyMyUSMzUiQzUiU0UyY1Uyk0Uis5Vy07WTA7WDA+XDRBXjU/XDdGYT1LZkBJZUBKZUNPaUdSbEdUbklSbEtXcExWb05ac1NedlVgeFljel5pgF9mfl9qgWBrgmZwhmxziHF6jnJ8kHN8kHR9kXV+knV/knZ/k3eAlHh/kniBlHiClHl/knuAk4CJmoaNnoePoImRoYuTo5GZqJSaqZacq5eerJeerZicq5ierZmdrJqfrpqhr6OntKmsua+1wLC0wLW6xL7BysLFztHU2tHU29TX3d/h5t/i5uLl6Obo6+fo7Ofp7Ojp7Orr7urs7+zt8PHy9PT19/X29/b29/b2+Pb3+Pf4+fj5+vn6+vv8/P3+/v7+/v////GBh4cAAAADdFJOU+jz9a/B8SsAAAAJcEhZcwAAFxEAABcRAcom8z8AAAImSURBVGhD7dj3UxNBFMDxRMDLYnJJFIgRiHBrLNiw994LKjYExV6x9441YgFr3v/rJfcu827XC7O5yy/Ofn/Km8x95mazk7m9CK9TUS2TtEzTMk3LtP9EtrIZ9bIWXl1JlhOpFatWKtebNPF6N1HONR98/mli/Jta4xOFZ3tYFxpOgtxtXoNauxD3rIggswGAn48vD59Ta/jKkz8A/dNQKeeVs8s/w9jOJiOmmtG09wu8XdCJTimvHD8MMNCIg1qNFwF201/RKxtDUNyQxkGuIyPtrUrJ7QAnGA6lBPmMLc/AQSyfmb8mMxsHqfQWgJNV5NNQ3Ognz1z96sftuX53nd5a/Z6rycYle2ut9/s2iGzuB3izrB0nsSAyb+s7v7Z1Dg5igWRuxtry+FEqmFwtLdO0TNMyTcs0LdO0TNMyTcs0LdMmk+1n/nU1ypM88w9CcVMKB7XMHQDH/OXEAYCzDf7HHP+6Gq4D7EriVMordyx8B18PMYMpFjPiR3/B6Dx6PvLKnB2xzyIv7t29r9adBy/t6/YlUCknyJyd+l06Q9fQ9+N0lWXZYtsejn4ofFSr8P71rc1eWJI5TzVbS5aqtribpYUjjCxznpulXLt8tv2XHE71l/MpfFMRvOnOgrtya//IjXAa6Wspi65sPMVtGbxHU8uiK8dvjoXVVed1kitbi3rDqsf5R3Nl3pkNq5wDVuTQ0zJNyzQt07RMq588JRKtT9HIXyTFPzou9sSWAAAAAElFTkSuQmCC;" vertex="1" parent="1">
          <mxGeometry x="1700" y="200.0" width="75" height="75" as="geometry" />
      </mxCell>
    </object><mxCell id="a98463e1d7772d9ec61243ac013fa727-src" value="e1-50" style="labelBackgroundColor=#ffffff;;" vertex="1" connectable="0" parent="a98463e1d7772d9ec61243ac013fa727">
      <mxGeometry x="-0.5" relative="1" as="geometry">
        <mxPoint as="offset" />
      </mxGeometry>
    </mxCell><mxCell id="a98463e1d7772d9ec61243ac013fa727-trgt" value="e1-50" style="labelBackgroundColor=#ffffff;;" vertex="1" connectable="0" parent="a98463e1d7772d9ec61243ac013fa727">
      <mxGeometry x="0.5" relative="-1" as="geometry">
        <mxPoint as="offset" />
      </mxGeometry>
    </mxCell><object id="a98463e1d7772d9ec61243ac013fa727" label="" src_label="e1-50" trgt_label="e1-50" source="srl-1" target="srl-2">
      <mxCell style="endArrow=none;jumpStyle=gap;entryY=0;exitY=1;entryX=0.5;exitX=0.5;" edge="1" parent="1" source="srl-1" target="srl-2">
          <mxGeometry relative="1" as="geometry" />
      </mxCell>
    </object><mxCell id="a5df13b48949224f3e18e0597cd35304-src" value="e1-51" style="labelBackgroundColor=#ffffff;;" vertex="1" connectable="0" parent="a5df13b48949224f3e18e0597cd35304">
      <mxGeometry x="-0.5" relative="1" as="geometry">
        <mxPoint as="offset" />
      </mxGeometry>
    </mxCell><mxCell id="a5df13b48949224f3e18e0597cd35304-trgt" value="e1-51" style="labelBackgroundColor=#ffffff;;" vertex="1" connectable="0" parent="a5df13b48949224f3e18e0597cd35304">
      <mxGeometry x="0.5" relative="-1" as="geometry">
        <mxPoint as="offset" />
      </mxGeometry>
    </mxCell><object id="a5df13b48949224f3e18e0597cd35304" label="" src_label="e1-51" trgt_label="e1-51" source="srl-1" target="srl-3">
      <mxCell style="endArrow=none;jumpStyle=gap;entryY=0.5;exitY=0.5;entryX=1;exitX=0;" edge="1" parent="1" source="srl-1" target="srl-3">
          <mxGeometry relative="1" as="geometry" />
      </mxCell>
    </object><mxCell id="2da4b9b355345f0132cba8763783a546-src" value="e1-52" style="labelBackgroundColor=#ffffff;;" vertex="1" connectable="0" parent="2da4b9b355345f0132cba8763783a546">
      <mxGeometry x="-0.5" relative="1" as="geometry">
        <mxPoint as="offset" />
      </mxGeometry>
    </mxCell><mxCell id="2da4b9b355345f0132cba8763783a546-trgt" value="eth1" style="labelBackgroundColor=#ffffff;;" vertex="1" connectable="0" parent="2da4b9b355345f0132cba8763783a546">
      <mxGeometry x="0.5" relative="-1" as="geometry">
        <mxPoint as="offset" />
      </mxGeometry>
    </mxCell><object id="2da4b9b355345f0132cba8763783a546" label="" src_label="e1-52" trgt_label="eth1" source="srl-1" target="7750-CORE-1">
      <mxCell style="endArrow=none;jumpStyle=gap;entryY=0.5;exitY=0.5;entryX=0;exitX=1;" edge="1" parent="1" source="srl-1" target="7750-CORE-1">
          <mxGeometry relative="1" as="geometry" />
      </mxCell>
    </object><mxCell id="ce660170d283a8f809c49239d680806f-src" value="e1-52" style="labelBackgroundColor=#ffffff;;" vertex="1" connectable="0" parent="ce660170d283a8f809c49239d680806f">
      <mxGeometry x="-0.5" relative="1" as="geometry">
        <mxPoint as="offset" />
      </mxGeometry>
    </mxCell><mxCell id="ce660170d283a8f809c49239d680806f-trgt" value="eth1" style="labelBackgroundColor=#ffffff;;" vertex="1" connectable="0" parent="ce660170d283a8f809c49239d680806f">
      <mxGeometry x="0.5" relative="-1" as="geometry">
        <mxPoint as="offset" />
      </mxGeometry>
    </mxCell><object id="ce660170d283a8f809c49239d680806f" label="" src_label="e1-52" trgt_label="eth1" source="srl-2" target="7750-CORE-2">
      <mxCell style="endArrow=none;jumpStyle=gap;entryY=0.5;exitY=0.5;entryX=0;exitX=1;" edge="1" parent="1" source="srl-2" target="7750-CORE-2">
          <mxGeometry relative="1" as="geometry" />
      </mxCell>
    </object><mxCell id="21d1bbfdc619ce3808fc2a73add17e82-src" value="e1-52" style="labelBackgroundColor=#ffffff;;" vertex="1" connectable="0" parent="21d1bbfdc619ce3808fc2a73add17e82">
      <mxGeometry x="-0.5" relative="1" as="geometry">
        <mxPoint as="offset" />
      </mxGeometry>
    </mxCell><mxCell id="21d1bbfdc619ce3808fc2a73add17e82-trgt" value="eth2" style="labelBackgroundColor=#ffffff;;" vertex="1" connectable="0" parent="21d1bbfdc619ce3808fc2a73add17e82">
      <mxGeometry x="0.5" relative="-1" as="geometry">
        <mxPoint as="offset" />
      </mxGeometry>
    </mxCell><object id="21d1bbfdc619ce3808fc2a73add17e82" label="" src_label="e1-52" trgt_label="eth2" source="srl-3" target="7750-CORE-1">
      <mxCell style="endArrow=none;jumpStyle=gap;entryY=0.5;exitY=0.5;entryX=0;exitX=1;" edge="1" parent="1" source="srl-3" target="7750-CORE-1">
          <mxGeometry relative="1" as="geometry" />
      </mxCell>
    </object><mxCell id="b38b819d63fde3d261e92d08f38fbd99-src" value="eth3" style="labelBackgroundColor=#ffffff;;" vertex="1" connectable="0" parent="b38b819d63fde3d261e92d08f38fbd99">
      <mxGeometry x="-0.5" relative="1" as="geometry">
        <mxPoint as="offset" />
      </mxGeometry>
    </mxCell><mxCell id="b38b819d63fde3d261e92d08f38fbd99-trgt" value="eth3" style="labelBackgroundColor=#ffffff;;" vertex="1" connectable="0" parent="b38b819d63fde3d261e92d08f38fbd99">
      <mxGeometry x="0.5" relative="-1" as="geometry">
        <mxPoint as="offset" />
      </mxGeometry>
    </mxCell><object id="b38b819d63fde3d261e92d08f38fbd99" label="" src_label="eth3" trgt_label="eth3" source="7750-CORE-1" target="7750-CORE-2">
      <mxCell style="endArrow=none;jumpStyle=gap;entryY=0;exitY=1;entryX=0.5;exitX=0.5;" edge="1" parent="1" source="7750-CORE-1" target="7750-CORE-2">
          <mxGeometry relative="1" as="geometry" />
      </mxCell>
    </object><mxCell id="c6dffe69185f0868b2e7dcc4262b4e21-src" value="eth4" style="labelBackgroundColor=#ffffff;;" vertex="1" connectable="0" parent="c6dffe69185f0868b2e7dcc4262b4e21">
      <mxGeometry x="-0.5" relative="1" as="geometry">
        <mxPoint as="offset" />
      </mxGeometry>
    </mxCell><mxCell id="c6dffe69185f0868b2e7dcc4262b4e21-trgt" value="eth1" style="labelBackgroundColor=#ffffff;;" vertex="1" connectable="0" parent="c6dffe69185f0868b2e7dcc4262b4e21">
      <mxGeometry x="0.5" relative="-1" as="geometry">
        <mxPoint as="offset" />
      </mxGeometry>
    </mxCell><object id="c6dffe69185f0868b2e7dcc4262b4e21" label="" src_label="eth4" trgt_label="eth1" source="7750-CORE-1" target="7750-DCIGW-1">
      <mxCell style="endArrow=none;jumpStyle=gap;entryY=0.5;exitY=0.5;entryX=0;exitX=1;" edge="1" parent="1" source="7750-CORE-1" target="7750-DCIGW-1">
          <mxGeometry relative="1" as="geometry" />
      </mxCell>
    </object><mxCell id="1a36f820dbd02935a5c2b508a63dad51-src" value="eth4" style="labelBackgroundColor=#ffffff;;" vertex="1" connectable="0" parent="1a36f820dbd02935a5c2b508a63dad51">
      <mxGeometry x="-0.5" relative="1" as="geometry">
        <mxPoint as="offset" />
      </mxGeometry>
    </mxCell><mxCell id="1a36f820dbd02935a5c2b508a63dad51-trgt" value="eth1" style="labelBackgroundColor=#ffffff;;" vertex="1" connectable="0" parent="1a36f820dbd02935a5c2b508a63dad51">
      <mxGeometry x="0.5" relative="-1" as="geometry">
        <mxPoint as="offset" />
      </mxGeometry>
    </mxCell><object id="1a36f820dbd02935a5c2b508a63dad51" label="" src_label="eth4" trgt_label="eth1" source="7750-CORE-2" target="7750-DCIGW-2">
      <mxCell style="endArrow=none;jumpStyle=gap;entryY=0.5;exitY=0.5;entryX=0;exitX=1;" edge="1" parent="1" source="7750-CORE-2" target="7750-DCIGW-2">
          <mxGeometry relative="1" as="geometry" />
      </mxCell>
    </object><mxCell id="8100fc32d1034e50580109b07168a957-src" value="e1-1" style="labelBackgroundColor=#ffffff;;" vertex="1" connectable="0" parent="8100fc32d1034e50580109b07168a957">
      <mxGeometry x="-0.5" relative="1" as="geometry">
        <mxPoint as="offset" />
      </mxGeometry>
    </mxCell><mxCell id="8100fc32d1034e50580109b07168a957-trgt" value="e1-1" style="labelBackgroundColor=#ffffff;;" vertex="1" connectable="0" parent="8100fc32d1034e50580109b07168a957">
      <mxGeometry x="0.5" relative="-1" as="geometry">
        <mxPoint as="offset" />
      </mxGeometry>
    </mxCell><object id="8100fc32d1034e50580109b07168a957" label="" src_label="e1-1" trgt_label="e1-1" source="L2-SW-1" target="srl-1">
      <mxCell style="endArrow=none;jumpStyle=gap;entryY=0.5;exitY=0.5;entryX=0;exitX=1;" edge="1" parent="1" source="L2-SW-1" target="srl-1">
          <mxGeometry relative="1" as="geometry" />
      </mxCell>
    </object><mxCell id="683b1eb73ce128e2e2db9f9665c1607a-src" value="e1-2" style="labelBackgroundColor=#ffffff;;" vertex="1" connectable="0" parent="683b1eb73ce128e2e2db9f9665c1607a">
      <mxGeometry x="-0.5" relative="1" as="geometry">
        <mxPoint as="offset" />
      </mxGeometry>
    </mxCell><mxCell id="683b1eb73ce128e2e2db9f9665c1607a-trgt" value="e1-1" style="labelBackgroundColor=#ffffff;;" vertex="1" connectable="0" parent="683b1eb73ce128e2e2db9f9665c1607a">
      <mxGeometry x="0.5" relative="-1" as="geometry">
        <mxPoint as="offset" />
      </mxGeometry>
    </mxCell><object id="683b1eb73ce128e2e2db9f9665c1607a" label="" src_label="e1-2" trgt_label="e1-1" source="L2-SW-1" target="srl-3">
      <mxCell style="endArrow=none;jumpStyle=gap;entryY=0.5;exitY=0.5;entryX=0;exitX=1;" edge="1" parent="1" source="L2-SW-1" target="srl-3">
          <mxGeometry relative="1" as="geometry" />
      </mxCell>
    </object><mxCell id="4298cecd09056b1f7f4ccfe27ef297fb-src" value="e1-50" style="labelBackgroundColor=#ffffff;;" vertex="1" connectable="0" parent="4298cecd09056b1f7f4ccfe27ef297fb">
      <mxGeometry x="-0.5" relative="1" as="geometry">
        <mxPoint as="offset" />
      </mxGeometry>
    </mxCell><mxCell id="4298cecd09056b1f7f4ccfe27ef297fb-trgt" value="e1-55" style="labelBackgroundColor=#ffffff;;" vertex="1" connectable="0" parent="4298cecd09056b1f7f4ccfe27ef297fb">
      <mxGeometry x="0.5" relative="-1" as="geometry">
        <mxPoint as="offset" />
      </mxGeometry>
    </mxCell><object id="4298cecd09056b1f7f4ccfe27ef297fb" label="" src_label="e1-50" trgt_label="e1-55" source="L2-SW-2" target="srl-2">
      <mxCell style="endArrow=none;jumpStyle=gap;entryY=0.5;exitY=0.5;entryX=0;exitX=1;" edge="1" parent="1" source="L2-SW-2" target="srl-2">
          <mxGeometry relative="1" as="geometry" />
      </mxCell>
    </object><mxCell id="611924ffc6abc667bd34266c418808bd-src" value="eth5" style="labelBackgroundColor=#ffffff;;" vertex="1" connectable="0" parent="611924ffc6abc667bd34266c418808bd">
      <mxGeometry x="-0.5" relative="1" as="geometry">
        <mxPoint as="offset" />
      </mxGeometry>
    </mxCell><mxCell id="611924ffc6abc667bd34266c418808bd-trgt" value="eth3" style="labelBackgroundColor=#ffffff;;" vertex="1" connectable="0" parent="611924ffc6abc667bd34266c418808bd">
      <mxGeometry x="0.5" relative="-1" as="geometry">
        <mxPoint as="offset" />
      </mxGeometry>
    </mxCell><object id="611924ffc6abc667bd34266c418808bd" label="" src_label="eth5" trgt_label="eth3" source="7750-CORE-2" target="vswitch-1">
      <mxCell style="endArrow=none;jumpStyle=gap;entryY=0.5;exitY=0.5;entryX=1;exitX=0;" edge="1" parent="1" source="7750-CORE-2" target="vswitch-1">
          <mxGeometry relative="1" as="geometry" />
      </mxCell>
    </object><mxCell id="b2ca02914629b4360c58c37ad3df3c02-src" value="e1-54" style="labelBackgroundColor=#ffffff;;" vertex="1" connectable="0" parent="b2ca02914629b4360c58c37ad3df3c02">
      <mxGeometry x="-0.5" relative="1" as="geometry">
        <mxPoint as="offset" />
      </mxGeometry>
    </mxCell><mxCell id="b2ca02914629b4360c58c37ad3df3c02-trgt" value="eth1" style="labelBackgroundColor=#ffffff;;" vertex="1" connectable="0" parent="b2ca02914629b4360c58c37ad3df3c02">
      <mxGeometry x="0.5" relative="-1" as="geometry">
        <mxPoint as="offset" />
      </mxGeometry>
    </mxCell><object id="b2ca02914629b4360c58c37ad3df3c02" label="" src_label="e1-54" trgt_label="eth1" source="srl-2" target="vswitch-1">
      <mxCell style="endArrow=none;jumpStyle=gap;entryY=0.5;exitY=0.5;entryX=1;exitX=0;" edge="1" parent="1" source="srl-2" target="vswitch-1">
          <mxGeometry relative="1" as="geometry" />
      </mxCell>
    </object><mxCell id="5065f3faa22ce3f49f10d9ca5c6185c1-src" value="e1-54" style="labelBackgroundColor=#ffffff;;" vertex="1" connectable="0" parent="5065f3faa22ce3f49f10d9ca5c6185c1">
      <mxGeometry x="-0.5" relative="1" as="geometry">
        <mxPoint as="offset" />
      </mxGeometry>
    </mxCell><mxCell id="5065f3faa22ce3f49f10d9ca5c6185c1-trgt" value="eth2" style="labelBackgroundColor=#ffffff;;" vertex="1" connectable="0" parent="5065f3faa22ce3f49f10d9ca5c6185c1">
      <mxGeometry x="0.5" relative="-1" as="geometry">
        <mxPoint as="offset" />
      </mxGeometry>
    </mxCell><object id="5065f3faa22ce3f49f10d9ca5c6185c1" label="" src_label="e1-54" trgt_label="eth2" source="srl-3" target="vswitch-1">
      <mxCell style="endArrow=none;jumpStyle=gap;entryY=0;exitY=1;entryX=0.5;exitX=0.5;" edge="1" parent="1" source="srl-3" target="vswitch-1">
          <mxGeometry relative="1" as="geometry" />
      </mxCell>
    </object><mxCell id="87904380cb95232f56b53b86358aaca1-src" value="e1-52" style="labelBackgroundColor=#ffffff;;" vertex="1" connectable="0" parent="87904380cb95232f56b53b86358aaca1">
      <mxGeometry x="-0.5" relative="1" as="geometry">
        <mxPoint as="offset" />
      </mxGeometry>
    </mxCell><mxCell id="87904380cb95232f56b53b86358aaca1-trgt" value="eth4" style="labelBackgroundColor=#ffffff;;" vertex="1" connectable="0" parent="87904380cb95232f56b53b86358aaca1">
      <mxGeometry x="0.5" relative="-1" as="geometry">
        <mxPoint as="offset" />
      </mxGeometry>
    </mxCell><object id="87904380cb95232f56b53b86358aaca1" label="" src_label="e1-52" trgt_label="eth4" source="L2-SW-2" target="vswitch-1">
      <mxCell style="endArrow=none;jumpStyle=gap;entryY=0.5;exitY=0.5;entryX=0;exitX=1;" edge="1" parent="1" source="L2-SW-2" target="vswitch-1">
          <mxGeometry relative="1" as="geometry" />
      </mxCell>
    </object><mxCell id="c2eee5319df0028ee8779d1a823b4db3-src" value="eth1" style="labelBackgroundColor=#ffffff;;" vertex="1" connectable="0" parent="c2eee5319df0028ee8779d1a823b4db3">
      <mxGeometry x="-0.5" relative="1" as="geometry">
        <mxPoint as="offset" />
      </mxGeometry>
    </mxCell><mxCell id="c2eee5319df0028ee8779d1a823b4db3-trgt" value="e1-10" style="labelBackgroundColor=#ffffff;;" vertex="1" connectable="0" parent="c2eee5319df0028ee8779d1a823b4db3">
      <mxGeometry x="0.5" relative="-1" as="geometry">
        <mxPoint as="offset" />
      </mxGeometry>
    </mxCell><object id="c2eee5319df0028ee8779d1a823b4db3" label="" src_label="eth1" trgt_label="e1-10" source="client1" target="L2-SW-1">
      <mxCell style="endArrow=none;jumpStyle=gap;entryY=0.5;exitY=0.5;entryX=0;exitX=1;" edge="1" parent="1" source="client1" target="L2-SW-1">
          <mxGeometry relative="1" as="geometry" />
      </mxCell>
    </object><mxCell id="b5f73c9e0df74bc0d16313262586fe97-src" value="eth1" style="labelBackgroundColor=#ffffff;;" vertex="1" connectable="0" parent="b5f73c9e0df74bc0d16313262586fe97">
      <mxGeometry x="-0.5" relative="1" as="geometry">
        <mxPoint as="offset" />
      </mxGeometry>
    </mxCell><mxCell id="b5f73c9e0df74bc0d16313262586fe97-trgt" value="e1-10" style="labelBackgroundColor=#ffffff;;" vertex="1" connectable="0" parent="b5f73c9e0df74bc0d16313262586fe97">
      <mxGeometry x="0.5" relative="-1" as="geometry">
        <mxPoint as="offset" />
      </mxGeometry>
    </mxCell><object id="b5f73c9e0df74bc0d16313262586fe97" label="" src_label="eth1" trgt_label="e1-10" source="client2" target="L2-SW-2">
      <mxCell style="endArrow=none;jumpStyle=gap;entryY=0.5;exitY=0.5;entryX=0;exitX=1;" edge="1" parent="1" source="client2" target="L2-SW-2">
          <mxGeometry relative="1" as="geometry" />
      </mxCell>
    </object><mxCell id="109c7516b26f81793d355cd2f20e9a5c-src" value="eth2" style="labelBackgroundColor=#ffffff;;" vertex="1" connectable="0" parent="109c7516b26f81793d355cd2f20e9a5c">
      <mxGeometry x="-0.5" relative="1" as="geometry">
        <mxPoint as="offset" />
      </mxGeometry>
    </mxCell><mxCell id="109c7516b26f81793d355cd2f20e9a5c-trgt" value="eth1" style="labelBackgroundColor=#ffffff;;" vertex="1" connectable="0" parent="109c7516b26f81793d355cd2f20e9a5c">
      <mxGeometry x="0.5" relative="-1" as="geometry">
        <mxPoint as="offset" />
      </mxGeometry>
    </mxCell><object id="109c7516b26f81793d355cd2f20e9a5c" label="" src_label="eth2" trgt_label="eth1" source="7750-DCIGW-1" target="7750-DCIGW-3">
      <mxCell style="endArrow=none;jumpStyle=gap;entryY=0.5;exitY=0.5;entryX=0;exitX=1;" edge="1" parent="1" source="7750-DCIGW-1" target="7750-DCIGW-3">
          <mxGeometry relative="1" as="geometry" />
      </mxCell>
    </object><mxCell id="0fcb3f6c9da95b2186783b16a052142b-src" value="eth2" style="labelBackgroundColor=#ffffff;;" vertex="1" connectable="0" parent="0fcb3f6c9da95b2186783b16a052142b">
      <mxGeometry x="-0.5" relative="1" as="geometry">
        <mxPoint as="offset" />
      </mxGeometry>
    </mxCell><mxCell id="0fcb3f6c9da95b2186783b16a052142b-trgt" value="eth2" style="labelBackgroundColor=#ffffff;;" vertex="1" connectable="0" parent="0fcb3f6c9da95b2186783b16a052142b">
      <mxGeometry x="0.5" relative="-1" as="geometry">
        <mxPoint as="offset" />
      </mxGeometry>
    </mxCell><object id="0fcb3f6c9da95b2186783b16a052142b" label="" src_label="eth2" trgt_label="eth2" source="7750-DCIGW-2" target="7750-DCIGW-3">
      <mxCell style="endArrow=none;jumpStyle=gap;entryY=0.5;exitY=0.5;entryX=0;exitX=1;" edge="1" parent="1" source="7750-DCIGW-2" target="7750-DCIGW-3">
          <mxGeometry relative="1" as="geometry" />
      </mxCell>
    </object><mxCell id="d53c91fec6694abb38a24c0956a3fefd-src" value="eth3" style="labelBackgroundColor=#ffffff;;" vertex="1" connectable="0" parent="d53c91fec6694abb38a24c0956a3fefd">
      <mxGeometry x="-0.5" relative="1" as="geometry">
        <mxPoint as="offset" />
      </mxGeometry>
    </mxCell><mxCell id="d53c91fec6694abb38a24c0956a3fefd-trgt" value="eth1" style="labelBackgroundColor=#ffffff;;" vertex="1" connectable="0" parent="d53c91fec6694abb38a24c0956a3fefd">
      <mxGeometry x="0.5" relative="-1" as="geometry">
        <mxPoint as="offset" />
      </mxGeometry>
    </mxCell><object id="d53c91fec6694abb38a24c0956a3fefd" label="" src_label="eth3" trgt_label="eth1" source="7750-DCIGW-3" target="server">
      <mxCell style="endArrow=none;jumpStyle=gap;entryY=0.5;exitY=0.5;entryX=0;exitX=1;" edge="1" parent="1" source="7750-DCIGW-3" target="server">
          <mxGeometry relative="1" as="geometry" />
      </mxCell>
    </object></root>
      </mxGraphModel>
    </diagram></mxfile>